<?xml version="1.0" standalone="no"?>
<!DOCTYPE svg PUBLIC "-//W3C//DTD SVG 20010904//EN"
 "http://www.w3.org/TR/2001/REC-SVG-20010904/DTD/svg10.dtd">
<svg version="1.0" xmlns="http://www.w3.org/2000/svg"
 width="1024.000000pt" height="1024.000000pt" viewBox="0 0 1024.000000 1024.000000"
 preserveAspectRatio="xMidYMid meet">

<g transform="translate(0.000000,1024.000000) scale(0.100000,-0.100000)"
fill="#000000" stroke="none">
<path d="M0 8950 l0 -1290 230 0 c147 0 230 -4 230 -10 0 -5 9 -10 20 -10 11
0 20 -4 20 -10 0 -6 67 -10 180 -10 99 0 180 4 180 9 0 16 51 19 65 4 12 -11
42 -14 137 -12 192 4 218 8 218 30 0 15 7 19 40 19 29 0 40 -4 40 -15 0 -11
11 -15 40 -15 29 0 40 4 40 15 0 11 11 15 40 15 29 0 40 -4 40 -15 0 -17 36
-21 42 -4 2 5 48 14 103 20 55 5 125 12 155 15 30 3 129 8 220 10 127 4 180
10 233 25 37 12 93 25 125 30 124 18 281 38 360 44 45 4 82 10 82 15 0 4 44
10 97 14 54 4 100 11 103 17 4 5 59 12 123 16 81 4 117 10 117 18 0 14 85 25
189 25 78 0 203 17 211 29 3 4 46 13 95 20 170 22 197 28 205 40 5 9 10 10 14
2 9 -14 46 -15 46 -1 0 6 9 10 20 10 11 0 20 5 20 10 0 6 36 10 88 10 67 0 98
5 132 21 25 12 68 22 95 23 28 2 66 3 86 4 20 1 46 11 59 22 13 11 32 20 44
21 12 0 15 3 9 6 -22 8 -14 23 13 23 14 0 32 6 40 14 7 8 44 18 81 22 38 3 71
11 74 16 10 16 86 27 181 28 82 0 138 13 138 32 0 4 21 8 46 8 27 0 51 6 60
15 10 9 34 15 64 15 67 0 150 20 150 37 0 8 12 13 29 13 49 0 91 12 91 26 0
10 16 14 60 14 33 0 60 4 60 10 0 6 9 10 20 10 11 0 20 5 20 10 0 6 19 10 43
10 23 0 62 7 87 16 27 10 116 21 225 29 115 8 180 16 183 24 2 6 21 11 43 11
24 0 39 5 39 13 0 9 2 9 9 -1 16 -26 211 -8 211 20 0 4 36 8 80 8 47 0 80 4
80 10 0 6 47 10 120 10 66 0 120 4 120 8 0 16 553 26 1514 26 758 1 960 4 963
14 3 7 21 12 44 12 21 0 39 5 39 10 0 6 18 10 40 10 22 0 40 5 40 10 0 6 57
10 150 10 93 0 150 4 150 10 0 6 9 10 20 10 11 0 20 5 20 10 0 6 47 10 120 10
87 0 120 3 120 12 0 9 3 9 11 1 6 -6 19 -8 30 -6 19 5 19 25 19 769 l0 764
-5120 0 -5120 0 0 -1290z m7743 -327 c-13 -2 -33 -2 -45 0 -13 2 -3 4 22 4 25
0 35 -2 23 -4z"/>
<path d="M0 5380 l0 -1433 358 6 c325 6 478 18 565 42 95 27 106 55 21 55 -35
0 -61 5 -70 15 -13 12 -9 16 28 26 31 8 104 9 268 3 334 -12 595 -11 685 4 44
6 184 14 310 16 221 4 460 27 478 45 14 14 -1 47 -28 61 -14 7 -25 19 -25 25
0 7 -13 26 -29 43 -30 30 -55 98 -49 130 3 15 20 16 158 13 200 -4 235 5 196
48 -24 26 -7 36 92 55 85 17 96 17 132 2 30 -12 75 -16 180 -16 77 0 208 -5
292 -11 l152 -11 19 23 c18 23 19 23 52 5 19 -10 40 -16 48 -13 25 9 46 67 36
99 -4 17 -6 42 -3 57 5 24 0 32 -45 64 -44 32 -51 42 -51 71 0 20 -6 36 -14
39 -20 8 -26 -1 -20 -32 4 -18 0 -32 -10 -40 -9 -8 -16 -22 -16 -33 0 -10 -4
-16 -10 -13 -5 3 -10 15 -10 25 0 10 -4 20 -9 22 -4 2 -20 22 -35 46 -29 47
-40 51 -56 22 -14 -27 -24 -25 -39 7 -17 37 4 55 71 61 50 4 55 2 82 -29 27
-29 30 -31 42 -15 17 23 19 24 42 3 14 -12 47 -21 108 -27 97 -10 133 -19 179
-44 17 -9 45 -16 63 -16 18 0 42 -4 52 -10 10 -5 62 -12 117 -14 54 -2 131 -9
171 -16 69 -11 125 -10 197 5 17 3 40 0 54 -7 24 -13 54 -83 46 -105 -5 -15
-55 -18 -55 -3 0 6 -9 10 -20 10 -11 0 -20 6 -20 14 0 7 -7 19 -16 27 -13 11
-19 9 -37 -13 -25 -28 -76 -45 -167 -55 -63 -6 -66 -8 -74 -55 -7 -42 -14 -50
-38 -37 -16 9 -24 7 -44 -12 -13 -12 -24 -25 -24 -29 0 -15 82 -31 205 -41
147 -12 382 -37 465 -50 128 -20 460 -32 474 -18 3 3 2 39 -2 80 -5 56 -11 74
-22 74 -8 0 -15 -9 -16 -20 -3 -57 -3 -58 -18 -45 -11 9 -13 18 -5 37 13 34 4
41 -21 18 -11 -10 -21 -15 -21 -12 -1 4 -2 11 -3 17 -2 17 -21 27 -58 33 -31
5 -40 2 -48 -14 -15 -28 -30 -23 -37 11 -6 33 -23 51 -23 26 0 -9 -5 -16 -10
-16 -6 0 -8 10 -4 24 4 18 1 25 -13 29 -30 10 -87 11 -110 3 -14 -4 -34 -1
-52 8 -41 22 -74 20 -96 -4 -17 -19 -19 -19 -31 -2 -31 41 -4 121 31 92 11 -9
22 -9 48 1 32 11 38 10 80 -17 26 -16 46 -35 47 -41 0 -7 4 -13 9 -13 5 0 8 8
7 18 -1 14 10 18 58 22 42 4 60 2 63 -7 3 -8 22 -13 47 -12 l41 1 -32 9 c-41
12 -43 24 -3 16 16 -4 30 -2 30 3 0 5 9 12 21 15 29 9 11 24 -31 26 -48 3
-134 30 -121 39 6 3 -30 7 -81 9 -50 1 -99 6 -109 12 -10 5 -27 9 -38 9 -12 0
-21 3 -21 8 0 4 -13 16 -29 27 -16 10 -27 23 -25 27 3 4 -6 8 -19 8 -13 0 -34
9 -47 20 -13 11 -35 20 -51 20 -15 0 -29 4 -31 9 -8 21 -110 61 -172 67 -36 4
-66 11 -66 15 0 5 -18 9 -40 9 -22 0 -40 5 -40 10 0 6 -29 10 -66 10 -41 0
-63 4 -59 10 4 7 -20 10 -67 10 -94 -1 -110 0 -128 8 -8 3 -24 6 -35 7 -11 1
-30 2 -42 3 -17 2 -23 8 -23 25 0 18 -2 19 -10 7 -6 -10 -10 -11 -10 -2 0 7
-13 12 -30 12 -23 0 -30 5 -30 19 0 11 -9 23 -20 26 -11 3 -20 12 -20 20 0 7
-15 16 -33 19 -29 5 -36 13 -47 46 -7 22 -19 40 -27 40 -7 0 -13 9 -13 20 0
11 -4 20 -10 20 -5 0 -10 18 -10 40 0 33 -3 40 -20 40 -13 0 -20 7 -20 20 0
13 -7 20 -20 20 -13 0 -20 7 -20 20 0 17 -7 20 -49 20 -68 0 -111 10 -111 26
0 8 -9 14 -20 14 -13 0 -20 7 -20 20 0 13 -7 20 -20 20 -11 0 -20 5 -20 10 0
6 -9 10 -20 10 -11 0 -20 5 -20 10 0 6 -9 10 -20 10 -18 0 -20 7 -20 60 0 53
-2 60 -20 60 -11 0 -20 7 -20 15 0 8 -9 15 -20 15 -15 0 -20 7 -20 25 0 14 -4
25 -10 25 -5 0 -10 9 -10 20 0 11 -4 20 -10 20 -5 0 -10 9 -10 20 0 13 -7 20
-20 20 -11 0 -20 5 -20 10 0 6 -9 10 -20 10 -11 0 -20 4 -20 9 0 5 -10 12 -22
14 -15 3 -8 5 17 7 22 1 32 4 23 7 -10 2 -18 9 -18 14 0 5 -9 9 -20 9 -14 0
-20 7 -20 21 0 17 -6 20 -37 19 -73 -4 -83 -1 -83 20 0 13 -7 20 -20 20 -11 0
-20 7 -20 15 0 8 -9 15 -20 15 -11 0 -20 5 -20 10 0 6 9 10 20 10 11 0 20 7
20 15 0 8 -9 15 -20 15 -18 0 -25 10 -21 33 0 4 -17 7 -39 7 -22 0 -40 -4 -40
-10 0 -5 -9 -10 -20 -10 -13 0 -20 7 -20 20 0 15 -7 20 -28 20 -16 0 -37 -9
-47 -20 -11 -12 -31 -20 -52 -20 -18 0 -33 -5 -33 -11 0 -5 -15 -16 -34 -24
-20 -9 -36 -24 -39 -37 -5 -18 -19 -28 -62 -41 -31 -9 -66 -17 -78 -17 -29 0
-47 -18 -47 -47 0 -25 -31 -45 -38 -25 -5 17 -42 15 -42 -3 0 -15 -31 -26 -65
-22 -14 1 -20 -3 -18 -16 0 -10 -1 -16 -4 -13 -8 8 -55 -19 -77 -43 -22 -25
-58 -27 -76 -6 -7 8 -17 15 -23 15 -19 0 -115 51 -133 71 -9 10 -23 19 -29 19
-7 0 -20 12 -30 26 -15 24 -18 24 -34 10 -25 -23 -68 -20 -81 4 -6 12 -21 20
-36 20 -19 0 -29 7 -36 28 -10 26 -48 53 -168 122 -52 30 -104 50 -129 50 -16
0 -41 10 -55 21 -35 28 -135 79 -154 79 -8 0 -26 9 -40 20 -14 12 -36 20 -48
18 -11 -1 -28 3 -37 10 -16 14 -32 18 -122 31 -33 5 -64 10 -70 12 -5 1 -19
-2 -29 -6 -12 -5 -31 -3 -50 5 -17 7 -48 13 -68 12 -20 -1 -40 3 -43 8 -4 7
-13 6 -26 0 -22 -12 -80 -4 -121 16 -15 8 -38 14 -52 14 -20 0 -29 8 -41 36
-11 26 -19 34 -30 30 -10 -3 -30 7 -51 27 -19 17 -45 41 -57 52 -36 34 -85 92
-138 162 l-49 66 0 -1433z m2775 -447 c4 -39 1 -54 -11 -64 -35 -28 -58 53
-34 117 10 24 13 26 25 13 8 -8 17 -38 20 -66z m-30 -113 c3 -5 1 -10 -4 -10
-6 0 -11 5 -11 10 0 6 2 10 4 10 3 0 8 -4 11 -10z m-247 -154 c3 -12 -1 -17
-10 -14 -7 3 -15 13 -16 22 -3 12 1 17 10 14 7 -3 15 -13 16 -22z m2792 -183
c0 -20 -3 -24 -11 -16 -7 7 -9 19 -6 27 10 24 17 19 17 -11z m-96 -14 c-3 -5
-10 -7 -15 -3 -5 3 -7 10 -3 15 3 5 10 7 15 3 5 -3 7 -10 3 -15z m-3204 -108
c0 -13 -34 -23 -54 -15 -28 11 -18 24 19 24 19 0 35 -4 35 -9z"/>
<path d="M2765 6210 c-18 -8 -17 -9 8 -9 16 -1 26 3 22 9 -3 6 -7 10 -8 9 -1
0 -11 -4 -22 -9z"/>
<path d="M10105 5528 c-9 -29 -55 -227 -55 -240 0 -7 -10 -31 -21 -53 -21 -39
-29 -78 -48 -235 -13 -106 -19 -120 -48 -120 -25 0 -25 1 -19 54 7 54 -11 116
-33 116 -12 0 -28 44 -42 115 -6 33 -17 78 -24 100 -7 22 -18 57 -24 77 -19
59 -23 80 -28 131 -4 36 -9 47 -22 47 -19 0 -61 -73 -61 -106 0 -10 -7 -37
-14 -59 -8 -22 -12 -52 -9 -66 3 -16 -1 -30 -11 -38 -9 -8 -16 -29 -16 -51 0
-48 -19 -64 -67 -55 -27 4 -44 1 -58 -9 -11 -9 -29 -16 -40 -17 -17 -1 -17 -2
-2 -6 21 -6 23 -23 1 -23 -9 0 -12 -5 -8 -12 5 -7 2 -9 -8 -5 -12 4 -14 1 -11
-14 3 -10 0 -19 -6 -19 -6 0 -11 -10 -11 -23 0 -13 -3 -27 -7 -31 -4 -4 -6
-35 -5 -69 2 -42 -2 -72 -12 -92 -17 -32 -21 -67 -9 -79 18 -18 29 -114 17
-147 -7 -19 -10 -44 -7 -56 4 -20 1 -23 -24 -23 -16 0 -37 -6 -46 -12 -14 -11
1 -13 85 -11 237 4 391 15 412 28 17 11 30 12 60 4 47 -13 143 -8 255 14 46 9
88 14 92 11 5 -3 9 130 9 300 0 257 -3 312 -16 346 -19 46 -22 47 -52 20 -26
-25 -48 -26 -56 -3 -5 12 2 25 24 43 27 23 30 30 30 82 0 51 -16 132 -35 181
-8 20 -24 22 -30 5z"/>
<path d="M8906 5376 c-9 -14 -16 -38 -15 -53 2 -73 -15 -173 -32 -189 -10 -9
-15 -22 -12 -30 3 -7 -7 -28 -21 -45 -14 -17 -26 -40 -26 -51 0 -14 -5 -18
-16 -14 -25 10 -42 -22 -37 -68 3 -27 -1 -48 -11 -61 -13 -18 -17 -18 -37 -6
-20 12 -24 11 -36 -5 -7 -10 -13 -30 -13 -46 0 -26 -33 -68 -53 -68 -4 0 -16
18 -25 39 -9 22 -27 44 -38 50 -21 9 -22 7 -29 -104 -4 -63 -4 -118 -1 -124 4
-5 -3 -12 -14 -16 -11 -3 -29 -19 -40 -36 -12 -16 -27 -29 -33 -29 -7 0 -23
-9 -37 -20 -14 -11 -33 -20 -43 -20 -24 0 -110 -47 -99 -54 41 -25 552 -9 754
25 64 10 148 19 186 19 87 0 127 13 116 38 -4 9 -9 31 -12 49 -2 20 -11 35
-23 38 -28 9 -27 112 1 148 19 24 19 25 2 48 -27 35 -33 56 -42 148 -7 75 -11
87 -34 106 -14 11 -26 25 -26 31 0 13 -37 44 -44 37 -3 -4 -6 7 -6 24 0 45
-68 103 -121 103 -35 0 -53 13 -30 22 5 2 10 32 12 68 4 64 3 65 -22 68 -19 2
-31 -4 -43 -22z m-352 -792 c9 -25 2 -26 -17 -4 -13 16 -14 20 -3 20 8 0 17
-7 20 -16z"/>
<path d="M7190 4708 c0 -7 -14 -46 -32 -86 -26 -60 -36 -72 -51 -68 -35 9 -45
-3 -42 -49 2 -24 6 -48 9 -54 4 -6 2 -19 -3 -30 -8 -14 -7 -21 2 -25 6 -4 -2
-4 -18 -2 -30 4 -31 3 -32 -35 -1 -21 2 -39 6 -39 5 0 12 -11 15 -24 3 -13 26
-40 50 -60 25 -20 48 -45 51 -56 8 -26 42 -26 75 0 14 11 34 20 44 20 11 0 28
8 38 17 11 9 34 17 52 17 26 0 37 6 49 29 19 32 22 67 7 67 -5 0 -14 10 -21
21 -9 17 -8 20 3 13 7 -4 6 1 -4 12 -9 10 -20 32 -24 48 -4 16 -26 47 -50 69
-24 23 -44 51 -44 62 0 11 -7 53 -17 93 -15 64 -19 72 -40 72 -13 0 -23 -6
-23 -12z"/>
<path d="M5290 4614 c0 -14 8 -16 53 -10 28 3 63 6 77 7 l25 1 -25 8 c-14 4
-49 8 -77 9 -43 1 -53 -2 -53 -15z"/>
<path d="M5480 4611 c0 -5 7 -11 15 -15 22 -8 145 -20 145 -14 0 3 -22 13 -49
22 -54 17 -111 21 -111 7z"/>
<path d="M4204 4590 c-12 -5 -29 -18 -37 -31 -11 -15 -22 -20 -38 -16 -12 3
-34 0 -48 -8 -14 -7 -35 -16 -46 -20 -37 -12 9 -26 104 -32 l87 -6 11 29 c6
16 14 44 17 62 6 35 -6 40 -50 22z"/>
<path d="M9960 4311 c0 -5 -31 -9 -70 -8 -55 1 -73 -3 -90 -18 -21 -19 -23
-19 -35 -2 -17 24 -30 21 -53 -10 -15 -21 -23 -25 -33 -17 -8 6 -36 10 -64 8
-38 -1 -53 -7 -67 -25 -39 -52 -39 -52 -58 -34 -21 19 -60 14 -118 -13 -27
-13 -37 -14 -53 -4 -11 7 -44 22 -75 33 l-56 21 -22 -21 c-13 -12 -32 -23 -44
-26 -36 -7 -61 -25 -77 -54 -11 -23 -20 -28 -36 -24 -14 4 -25 0 -31 -11 -11
-19 -39 -21 -56 -4 -9 9 -16 8 -29 -4 -20 -17 -100 -23 -117 -9 -18 15 -50 16
-74 3 -12 -7 -27 -10 -32 -7 -5 3 -43 -3 -83 -14 -40 -12 -88 -21 -107 -21
-21 0 -43 -8 -56 -21 -21 -20 -25 -21 -46 -7 -25 16 -29 15 -98 -45 -15 -13
-85 -14 -181 -1 -33 4 -56 1 -77 -10 -17 -9 -42 -16 -56 -16 -14 0 -28 -4 -31
-10 -3 -5 -19 -10 -35 -10 -21 0 -33 -7 -43 -26 l-13 -25 -12 25 c-13 29 -24
32 -40 14 -32 -41 -16 -93 26 -82 12 4 22 14 22 23 1 13 3 12 12 -4 7 -11 18
-26 25 -33 7 -7 13 -25 13 -38 0 -35 46 -93 69 -87 19 5 46 -21 37 -35 -3 -5
-31 -22 -61 -37 l-56 -27 -39 36 c-53 48 -91 49 -108 3 -15 -42 -15 -70 -1
-84 16 -16 0 -35 -25 -29 -17 4 -24 -2 -38 -36 -17 -39 -17 -41 0 -63 18 -22
19 -22 30 -4 16 25 32 24 32 -1 0 -24 13 -25 45 -4 37 24 98 2 113 -40 18 -48
15 -50 -24 -25 l-36 22 -84 -22 c-85 -21 -134 -27 -134 -15 0 12 34 33 53 34
29 0 19 17 -14 24 -25 5 -30 10 -24 23 12 33 10 38 -16 41 -19 2 -33 -5 -50
-25 -29 -35 -62 -40 -181 -31 -42 4 -58 1 -62 -9 -8 -20 -36 -16 -36 6 0 30
-41 35 -63 9 -16 -19 -20 -20 -27 -7 -5 9 -27 28 -48 43 -41 28 -61 27 -96 -6
-11 -10 -26 -18 -33 -18 -7 0 -17 -8 -22 -19 -6 -10 -26 -26 -46 -35 -20 -10
-38 -24 -41 -32 -14 -47 -13 -46 -28 -32 -8 7 -12 16 -10 20 2 4 1 9 -4 12 -9
5 -34 -20 -51 -52 -7 -13 -18 -18 -30 -15 -11 3 -27 -4 -39 -17 -22 -24 -22
-25 -62 54 -26 52 -37 61 -82 71 -16 3 -28 12 -28 21 0 20 -27 29 -44 14 -10
-8 -20 -8 -33 -2 -12 7 -25 7 -36 1 -27 -16 -55 -1 -73 37 -12 25 -19 31 -25
23 -11 -18 -19 24 -16 86 1 37 6 50 17 50 10 0 16 -13 18 -42 3 -46 8 -50 37
-30 17 13 17 15 -1 48 -10 18 -28 41 -38 50 -15 12 -20 30 -20 74 -1 62 -13
77 -40 49 -12 -11 -16 -30 -15 -60 2 -24 0 -46 -3 -49 -3 -3 -19 5 -35 19 -17
14 -49 28 -71 32 -43 7 -60 0 -111 -45 -29 -25 -35 -26 -64 -6 -20 13 -26 13
-52 -1 -22 -12 -62 -17 -145 -18 -105 -2 -117 0 -132 18 -15 18 -20 19 -48 9
-36 -13 -56 -8 -70 17 -9 17 -11 17 -47 -1 -29 -15 -49 -18 -84 -14 -29 4 -49
3 -54 -4 -3 -6 -19 -11 -34 -11 -22 0 -31 -7 -41 -30 -9 -21 -19 -30 -36 -30
-12 0 -26 -5 -30 -11 -4 -7 -24 -9 -55 -6 -54 7 -92 -14 -103 -57 -7 -27 -70
-79 -100 -81 -32 -3 -76 24 -76 46 0 11 -4 28 -9 38 -13 23 -78 16 -94 -10
-15 -24 -33 -24 -45 -2 -9 15 -15 15 -50 5 -59 -18 -90 -15 -97 8 -8 27 -29
25 -52 -3 -34 -43 -47 -44 -39 -3 7 35 6 36 -14 24 -11 -7 -23 -23 -26 -35 -7
-26 -60 -47 -97 -38 -30 8 -40 -13 -31 -64 6 -32 5 -35 -9 -23 -17 15 -108 24
-126 12 -24 -14 -60 2 -70 32 -9 25 -14 29 -33 23 -13 -3 -33 -9 -44 -12 -25
-6 -46 -45 -48 -85 -1 -15 -5 -27 -11 -25 -5 1 -8 12 -6 25 2 15 -10 36 -33
62 -22 25 -36 50 -36 66 0 27 -7 28 -50 10 -11 -5 -19 3 -27 24 -6 16 -17 32
-25 34 -137 37 -162 39 -164 9 -2 -36 -22 -53 -47 -43 -29 12 -153 40 -179 40
-11 0 -32 -8 -46 -18 -49 -32 -98 -44 -138 -33 -36 10 -78 5 -162 -21 -29 -8
-37 -7 -56 11 -16 15 -35 21 -68 21 -40 0 -47 3 -50 22 -5 32 -28 35 -28 4 0
-20 -5 -26 -23 -26 -12 0 -33 7 -45 16 -12 8 -48 18 -80 21 -31 3 -67 12 -79
19 -12 8 -32 14 -43 14 -20 0 -119 -38 -130 -49 -3 -4 -17 -12 -32 -20 -16 -8
-28 -20 -28 -26 0 -16 -35 -47 -43 -38 -4 3 -7 1 -7 -5 0 -7 -4 -12 -9 -12 -5
0 -7 9 -4 19 6 22 -14 35 -69 45 -21 4 -40 11 -43 16 -4 6 -12 40 -19 77 -6
37 -17 68 -22 70 -6 2 -22 -17 -35 -42 -15 -28 -34 -48 -50 -54 -15 -5 -30
-18 -34 -30 -4 -14 -16 -21 -43 -23 l-37 -3 -5 -57 c-3 -33 -12 -66 -22 -77
-15 -18 -20 -18 -62 -6 -65 20 -96 38 -109 65 -7 14 -26 29 -42 35 -17 5 -33
14 -37 20 -4 5 -8 -1 -8 -14 l0 -24 -25 23 c-14 13 -25 29 -25 36 0 7 -18 15
-41 19 -36 6 -43 12 -58 49 -21 48 -36 192 -21 201 13 8 13 52 0 60 -6 3 -10
18 -10 32 0 37 -63 90 -101 85 -22 -3 -31 -12 -38 -37 -5 -19 -18 -44 -30 -56
-23 -25 -26 -46 -12 -81 5 -13 12 -35 15 -50 4 -16 12 -28 20 -28 7 0 19 -6
25 -14 9 -11 5 -24 -20 -61 -17 -26 -38 -49 -47 -52 -22 -9 -65 44 -58 71 4
15 -4 30 -30 54 -19 18 -39 30 -44 27 -6 -4 -10 -33 -10 -66 0 -48 5 -68 25
-97 39 -57 49 -106 29 -138 -16 -23 -21 -25 -63 -19 -60 8 -123 26 -140 39
-10 8 -20 2 -41 -24 -26 -32 -27 -36 -13 -57 20 -30 10 -55 -19 -51 -17 2 -24
11 -26 30 -3 28 -39 47 -60 34 -6 -3 -23 1 -38 9 -41 21 -67 19 -92 -10 -22
-25 -52 -25 -52 1 0 18 -5 18 -35 -2 -14 -9 -25 -22 -25 -29 0 -8 -12 -23 -27
-35 -15 -12 -28 -31 -28 -43 0 -15 -6 -22 -20 -22 -13 0 -21 -8 -23 -21 -2
-11 -16 -28 -33 -38 -26 -15 -35 -16 -60 -6 -31 13 -46 9 -34 -10 4 -6 14 -8
24 -5 13 4 17 -2 19 -25 3 -34 -4 -37 -29 -14 -16 15 -21 15 -41 2 -33 -21
-88 -30 -105 -17 -11 10 -11 16 3 37 16 24 16 26 -1 38 -24 18 -35 9 -35 -26
0 -15 -7 -30 -15 -34 -8 -3 -15 -17 -15 -30 0 -16 -9 -31 -23 -40 -29 -18
-117 -31 -117 -17 0 6 -16 11 -36 11 -19 0 -33 -4 -29 -9 3 -5 1 -12 -5 -16
-6 -3 -13 1 -16 9 -3 9 -12 16 -20 16 -11 0 -14 -32 -14 -173 l0 -174 64 -11
c35 -7 83 -12 107 -12 24 -1 55 -7 69 -15 14 -8 50 -15 80 -15 63 0 95 -14 70
-30 -8 -5 -25 -10 -37 -10 -12 0 -33 -4 -48 -10 -14 -5 -72 -19 -128 -31 -56
-11 -118 -26 -139 -32 -37 -11 -38 -13 -38 -58 l0 -45 58 7 c62 8 228 43 277
59 17 5 55 12 85 16 30 4 67 13 81 20 14 7 39 12 55 12 17 -1 39 4 49 9 11 6
72 11 135 12 63 2 126 4 140 5 14 2 30 4 37 5 6 0 13 13 15 28 2 22 11 28 50
40 47 13 60 26 36 36 -13 4 -104 -14 -164 -33 -49 -16 -59 -12 -31 14 26 24
46 29 182 41 84 8 168 22 250 40 92 21 291 55 385 66 41 4 107 12 145 18 39 5
134 14 210 20 77 6 192 18 255 26 63 8 196 19 296 25 99 6 225 18 280 26 172
26 327 44 335 38 9 -5 230 21 334 40 43 8 79 10 94 4 26 -9 130 -2 206 14 57
13 225 17 225 6 0 -5 -11 -8 -25 -8 -15 0 -39 -7 -55 -15 -23 -12 -131 -34
-172 -35 -5 0 -8 -5 -8 -11 0 -7 14 -8 41 -4 31 5 45 3 60 -10 16 -15 31 -17
95 -11 42 3 84 11 92 18 8 7 24 17 36 23 11 7 20 17 19 23 -2 6 9 15 25 18 15
4 38 15 53 25 32 23 56 11 40 -20 -7 -11 -16 -21 -21 -21 -6 0 -10 -9 -10 -20
0 -10 -10 -25 -22 -31 -13 -7 -28 -18 -35 -24 -6 -7 -24 -10 -38 -7 -33 6 -54
-20 -55 -70 0 -20 -6 -43 -12 -50 -7 -8 -18 -23 -24 -33 -9 -15 -21 -19 -44
-17 -23 2 -40 -4 -56 -19 -19 -18 -34 -21 -96 -20 -57 1 -79 -3 -103 -19 -16
-11 -38 -20 -47 -20 -30 0 -63 -20 -78 -47 -15 -26 -17 -26 -145 -30 -120 -3
-160 -12 -141 -30 4 -4 43 -10 87 -13 44 -3 79 -8 79 -12 0 -5 0 -17 0 -28 0
-11 -6 -20 -13 -20 -7 0 -18 -9 -25 -20 -9 -14 -23 -20 -50 -20 -21 0 -43 -5
-48 -10 -16 -16 -42 -2 -46 23 -4 30 -38 33 -91 8 -23 -11 -58 -22 -78 -26
-20 -3 -54 -21 -76 -40 -23 -19 -52 -35 -65 -35 -13 0 -29 -5 -36 -12 -9 -9
-12 -6 -12 15 0 38 28 63 67 59 24 -2 35 2 45 17 7 12 20 21 30 21 9 0 19 3
21 8 9 13 -82 0 -94 -14 -7 -9 -32 -14 -70 -14 -33 0 -69 -6 -80 -13 -17 -10
-23 -9 -31 3 -14 21 -215 10 -249 -14 -33 -22 -117 -12 -141 18 l-18 21 -18
-23 c-15 -20 -22 -22 -46 -13 -50 20 -116 11 -116 -14 0 -23 -63 -53 -125 -60
-33 -3 -78 -9 -100 -12 -33 -4 -38 -3 -27 8 17 18 15 46 -4 53 -21 8 -84 -3
-84 -15 0 -5 8 -12 18 -16 9 -3 25 -15 35 -25 17 -18 17 -19 -13 -36 -66 -36
-66 -37 -26 -60 46 -27 39 -42 -20 -42 -24 0 -44 -5 -44 -10 0 -11 -17 -19
-103 -46 -60 -19 -80 -39 -82 -81 0 -16 7 -24 25 -28 14 -4 32 -13 40 -20 8
-7 29 -15 45 -17 29 -3 33 -11 24 -47 -3 -10 9 -17 35 -23 31 -7 45 -4 77 14
36 20 56 45 45 56 -3 2 -19 -4 -37 -15 -26 -17 -36 -19 -60 -10 -66 25 -11 55
112 62 40 2 77 1 82 -2 10 -6 -22 -43 -38 -43 -7 0 -12 -14 -13 -30 -1 -40
-21 -101 -40 -119 -9 -10 -12 -26 -9 -49 5 -28 4 -32 -8 -22 -8 7 -35 9 -69 6
-55 -4 -73 4 -38 20 9 4 22 8 27 8 9 1 12 62 3 71 -9 9 -84 -25 -96 -44 -17
-25 -32 -27 -32 -6 0 14 -27 19 -102 18 -10 0 -18 4 -18 9 0 4 -12 8 -26 8
-20 0 -24 -4 -19 -19 10 -32 -15 -42 -81 -31 -32 6 -62 10 -66 10 -5 0 -8 5
-8 11 0 7 11 9 28 6 16 -3 35 0 46 9 11 8 27 14 37 14 9 0 19 8 22 19 3 13 17
20 47 24 24 3 47 11 51 19 15 22 10 48 -8 49 -84 4 -139 21 -128 40 4 5 17 9
29 9 38 0 49 23 29 58 -17 30 -17 32 0 49 16 16 17 16 17 0 0 -10 8 -17 18
-17 37 0 31 14 -14 37 -64 32 -82 30 -86 -9 -3 -30 -7 -33 -47 -40 -54 -9 -58
-13 -38 -36 23 -25 21 -32 -8 -32 -14 0 -34 -9 -45 -20 -11 -11 -31 -20 -44
-20 -13 0 -34 -9 -48 -19 -24 -19 -49 -23 -133 -22 -22 0 -62 -9 -88 -21 -51
-23 -66 -18 -67 24 0 9 -9 20 -21 23 -20 7 -20 7 -2 20 10 7 54 15 98 19 132
10 169 18 190 37 11 10 40 37 65 59 25 23 41 40 35 39 -5 -1 -20 -1 -32 0 -27
1 -31 29 -5 38 26 10 66 43 52 43 -7 0 -10 3 -7 6 4 4 13 2 20 -5 19 -15 180
-19 198 -5 26 20 45 12 47 -20 3 -41 7 -42 47 -23 20 9 44 17 54 17 10 0 24 7
31 15 7 8 18 15 25 15 7 0 23 8 36 19 l23 18 -28 15 c-22 11 -40 13 -74 6 -36
-6 -49 -5 -61 7 -17 16 -9 20 33 15 20 -2 66 19 66 30 0 8 -8 10 -85 16 -52 5
-63 3 -79 -15 -11 -12 -27 -21 -37 -21 -13 0 -18 -6 -16 -22 2 -19 -3 -24 -33
-26 -19 -2 -40 -8 -46 -13 -8 -6 -24 -4 -48 7 -35 17 -37 17 -81 -5 -62 -31
-102 -41 -127 -32 -24 9 -17 18 40 52 41 24 32 43 -17 35 -20 -3 -58 -9 -84
-12 -42 -6 -52 -12 -73 -45 -13 -21 -34 -41 -47 -44 -34 -8 -66 -2 -72 13 -3
9 -19 13 -42 12 -21 -1 -40 -1 -43 0 -8 4 -172 13 -205 12 -55 -2 -171 -19
-185 -27 -7 -5 -34 -9 -59 -10 -25 -2 -82 -6 -125 -10 l-79 -8 6 33 7 33 -62
-7 c-35 -4 -87 -10 -115 -13 -29 -3 -53 -9 -53 -13 0 -13 96 -28 149 -23 51 6
53 5 42 -15 -14 -26 -14 -35 -1 -27 6 3 10 1 10 -4 0 -16 -16 -13 -34 4 -17
18 -89 11 -109 -10 -7 -6 -22 -17 -35 -24 -21 -11 -22 -16 -22 -181 0 -190 -2
-186 69 -151 33 18 37 23 33 50 -2 19 0 31 7 31 6 0 11 8 11 18 0 32 40 42 80
22 19 -10 39 -16 44 -13 5 3 6 0 4 -8 -5 -14 -12 -15 -62 -3 -25 6 -28 4 -23
-10 4 -10 7 -25 7 -35 0 -12 17 -23 55 -36 63 -21 71 -35 21 -35 -23 0 -39 -7
-49 -20 -10 -14 -30 -21 -73 -26 -125 -13 -157 -38 -83 -67 36 -14 46 -14 82
-3 23 8 70 17 104 20 57 6 61 5 56 -12 -4 -16 -14 -19 -58 -18 -51 0 -84 -12
-57 -21 22 -8 13 -22 -25 -38 -61 -27 -68 -31 -71 -49 -8 -40 110 4 173 65 31
29 52 40 85 45 40 5 46 3 55 -18 6 -14 20 -24 38 -26 26 -3 32 4 28 34 -2 22
243 34 279 14 11 -7 2 -14 -38 -31 l-53 -22 39 -23 c36 -22 44 -23 98 -13 33
6 68 13 80 15 24 4 64 37 64 52 0 6 -16 8 -40 5 -34 -5 -40 -3 -40 13 0 27 71
65 96 51 41 -23 43 -32 23 -77 -19 -42 -27 -69 -28 -99 -1 -9 -9 -11 -26 -7
-23 6 -25 4 -25 -29 0 -39 -5 -42 -30 -20 -22 20 -95 10 -120 -15 -22 -22
-139 -38 -121 -16 6 7 24 16 40 19 23 5 30 12 33 37 4 26 1 34 -20 43 -21 10
-27 8 -46 -15 -20 -24 -119 -58 -133 -45 -11 11 8 25 52 37 38 11 45 17 43 34
-3 18 -10 21 -58 23 -59 2 -126 -11 -177 -33 -17 -8 -50 -14 -73 -14 -34 0
-41 -3 -36 -16 3 -9 6 -18 6 -20 0 -2 7 -4 16 -4 8 0 12 -4 9 -10 -9 -15 -45
-12 -45 4 0 20 -19 24 -65 14 -22 -5 -57 -7 -78 -5 -53 7 -77 -1 -77 -27 0
-12 5 -27 12 -34 9 -9 9 -12 0 -12 -8 0 -12 -18 -12 -50 0 -53 15 -65 40 -35
10 12 28 15 72 13 32 -2 58 -7 58 -13 0 -5 -14 -8 -30 -7 -40 5 -80 -34 -73
-71 3 -15 12 -27 19 -27 8 0 14 -4 14 -9 0 -16 -25 -19 -41 -4 -15 12 -19 11
-38 -13 -21 -26 -21 -31 -21 -615 l0 -589 5120 0 5120 0 -2 1928 -3 1927 -25
1 c-43 1 -51 4 -46 13 9 14 -50 24 -73 12 -11 -6 -22 -20 -26 -30 -3 -11 -20
-24 -37 -30 -17 -6 -28 -14 -25 -17 6 -6 -41 -76 -55 -82 -4 -2 -15 -19 -24
-38 -16 -34 -44 -46 -44 -19 0 40 -97 -14 -126 -69 -9 -20 -17 -21 -71 -14
-16 2 -35 50 -33 80 4 43 0 58 -14 58 -9 0 -17 -16 -21 -42 -7 -44 -31 -82
-46 -72 -5 3 -26 -5 -47 -17 -26 -15 -46 -20 -64 -16 -29 8 -38 25 -45 81 -2
22 -9 49 -15 60 -10 19 -11 19 -34 -8 -15 -17 -24 -40 -24 -61 0 -58 -29 -53
-44 8 -7 30 -33 36 -43 11 -3 -9 -6 -32 -7 -52 -1 -43 -26 -54 -56 -27 -18 16
-22 16 -42 3 -13 -8 -40 -18 -61 -22 -22 -4 -54 -22 -76 -42 -33 -30 -40 -32
-51 -19 -9 11 -10 26 -4 52 13 56 3 147 -20 172 -21 23 -65 29 -67 9 -1 -7 -2
-35 -3 -63 -1 -48 -2 -50 -29 -50 -40 0 -54 -28 -27 -55 33 -33 22 -56 -23
-52 -35 3 -37 1 -31 -21 7 -32 -7 -40 -49 -29 -28 8 -37 6 -61 -14 -32 -28
-49 -23 -40 11 9 35 -22 92 -57 104 -33 11 -116 4 -136 -12 -18 -13 -16 -37 2
-37 8 0 15 -4 15 -10 0 -19 -20 -10 -49 22 -15 17 -26 39 -24 47 6 23 50 41
83 35 16 -4 37 0 51 9 13 8 40 18 59 22 84 15 103 33 80 74 -12 23 10 56 42
64 13 3 56 19 97 36 40 17 80 31 90 31 9 0 25 7 35 15 11 8 37 15 58 15 21 0
46 4 56 9 9 5 44 14 76 20 44 8 68 19 91 41 30 29 54 37 68 23 4 -3 2 -12 -4
-19 -9 -11 -4 -13 20 -11 24 1 33 8 40 30 13 35 35 35 51 -2 7 -18 17 -28 25
-24 8 2 23 -2 35 -10 25 -17 104 -12 135 9 11 8 40 14 65 14 27 0 58 8 78 20
20 12 50 20 78 20 26 0 71 11 107 26 34 15 109 35 165 44 94 17 108 22 150 58
26 21 47 48 47 58 0 39 -150 106 -169 75 -3 -5 -23 6 -43 25 -36 33 -63 44
-63 25z m-1363 -533 c-3 -8 -6 -5 -6 6 -1 11 2 17 5 13 3 -3 4 -12 1 -19z
m-438 -94 c-7 -9 -21 -13 -31 -10 -24 6 -33 -16 -18 -43 9 -18 8 -21 -7 -21
-10 1 -29 9 -41 20 -22 18 -23 22 -10 50 10 24 19 30 44 30 16 0 39 6 50 14
17 13 19 13 22 -5 2 -11 -2 -27 -9 -35z m101 2 c0 -29 -22 -39 -45 -22 -17 12
-16 14 6 29 32 23 39 21 39 -7z m-70 -92 c11 -12 25 -14 67 -8 59 7 74 -6 53
-46 -9 -18 -18 -21 -41 -16 -16 3 -44 9 -61 12 -41 8 -94 54 -76 66 20 12 44
9 58 -8z m-1096 -170 c22 -8 20 -21 -3 -27 -19 -5 -41 9 -41 25 0 9 22 10 44
2z m-3186 -54 c-14 -22 -49 -24 -55 -3 -4 11 15 20 50 22 15 1 15 -2 5 -19z
m238 -8 c-10 -2 -22 0 -28 6 -6 6 0 7 19 4 21 -5 23 -7 9 -10z m1626 -54 c-7
-7 -12 -8 -12 -2 0 14 12 26 19 19 2 -3 -1 -11 -7 -17z m2178 0 c0 -4 -2 -8
-4 -8 -2 0 -11 -3 -19 -6 -8 -3 -17 2 -20 10 -5 12 0 15 18 14 14 -1 25 -6 25
-10z m-2242 -26 c2 -7 -5 -12 -17 -12 -14 0 -19 5 -14 15 6 17 25 15 31 -3z
m-78 -2 c0 -5 -5 -10 -11 -10 -5 0 -7 5 -4 10 3 6 8 10 11 10 2 0 4 -4 4 -10z
m-100 -9 c0 -12 -20 -25 -27 -18 -7 7 6 27 18 27 5 0 9 -4 9 -9z m-1320 -106
c-12 -15 -30 -12 -30 6 0 5 10 9 21 9 18 0 19 -2 9 -15z m512 -36 c12 -7 44
-14 72 -18 61 -7 63 -26 3 -27 -76 0 -87 -3 -87 -21 -1 -17 -60 -63 -80 -63
-5 0 -12 -9 -15 -20 -3 -11 -15 -20 -25 -20 -14 0 -20 10 -25 40 -8 45 -35 55
-57 20 -18 -28 -78 -28 -78 -1 0 11 -4 23 -10 26 -15 9 -12 25 5 25 8 0 15 -7
15 -15 0 -8 8 -15 19 -15 10 0 24 7 31 15 7 8 25 15 41 15 15 0 31 4 34 10 7
12 104 59 123 59 7 1 23 -4 34 -10z m1573 -19 c3 -5 1 -10 -4 -10 -6 0 -11 5
-11 10 0 6 2 10 4 10 3 0 8 -4 11 -10z m-1925 -50 c13 -8 13 -12 -3 -27 -14
-15 -21 -16 -37 -5 -11 6 -28 12 -37 12 -14 1 -12 4 7 15 29 17 49 18 70 5z
m595 -170 c3 -5 1 -10 -4 -10 -6 0 -11 5 -11 10 0 6 2 10 4 10 3 0 8 -4 11
-10z m995 -50 c0 -21 6 -42 13 -47 6 -4 46 -9 87 -10 41 -1 84 -3 95 -4 11 -2
71 -2 133 -1 90 2 112 5 112 16 0 21 20 30 33 17 14 -14 50 -14 65 1 8 8 18 9
34 1 13 -6 42 -16 66 -22 39 -11 42 -14 42 -45 0 -27 -4 -34 -22 -38 -36 -6
-55 1 -61 23 -6 24 -35 25 -44 2 -9 -22 -35 -53 -45 -53 -5 0 -8 18 -8 40 0
47 -8 49 -40 15 -15 -16 -30 -23 -42 -19 -13 4 -18 0 -18 -15 0 -14 -6 -21
-20 -21 -11 0 -20 3 -20 8 0 15 -79 45 -92 35 -7 -6 -25 -13 -40 -17 -51 -12
-21 -55 39 -56 37 0 47 -11 30 -34 -19 -26 -66 -34 -202 -34 -115 0 -161 -7
-127 -19 19 -7 -32 -43 -61 -43 -45 0 -87 -12 -87 -25 0 -8 17 -19 38 -25 52
-17 59 -26 37 -50 -17 -19 -20 -19 -36 -4 -13 12 -28 15 -54 10 -28 -6 -35 -4
-35 9 0 17 20 56 35 68 6 4 -8 6 -30 5 l-40 -3 -2 -69 c-1 -51 -6 -73 -17 -82
-9 -6 -16 -16 -16 -23 0 -16 -11 -13 -37 8 -13 11 -23 28 -23 39 0 24 -52 59
-95 64 -30 3 -51 19 -73 56 -10 18 -10 26 0 42 7 11 16 20 20 20 5 0 6 19 4
43 -3 39 -6 43 -41 52 -34 8 -39 7 -56 -15 -41 -55 -46 -59 -87 -53 -40 5 -87
-12 -111 -41 -11 -13 -7 -16 28 -22 48 -8 52 -18 12 -38 -16 -9 -31 -24 -34
-36 -3 -12 -11 -18 -20 -15 -9 4 -20 -5 -30 -27 -14 -30 -77 -69 -77 -49 0 8
-45 31 -60 31 -6 0 -10 -18 -10 -39 0 -41 -8 -71 -19 -71 -3 0 -6 22 -6 49 0
33 -6 55 -18 68 -9 11 -16 31 -15 44 3 22 -1 24 -61 32 -58 7 -67 6 -85 -12
-11 -11 -18 -23 -15 -26 7 -6 62 -13 112 -14 26 -1 37 -5 35 -13 -5 -13 -46
-26 -110 -35 -31 -4 -38 -9 -38 -27 0 -15 -9 -27 -26 -34 -14 -7 -22 -17 -19
-22 11 -17 -26 -24 -60 -11 -29 10 -38 9 -64 -7 -23 -14 -28 -21 -19 -30 9 -9
8 -12 -4 -12 -9 0 -23 6 -30 13 -7 7 -21 16 -31 20 -25 9 -17 29 17 45 26 13
27 15 10 33 -10 11 -25 19 -33 18 -54 -5 -67 14 -31 46 20 18 21 18 40 -3 17
-17 25 -19 52 -11 18 5 34 9 35 9 6 0 -12 36 -20 41 -5 4 5 11 22 17 21 8 31
18 31 31 0 17 6 21 33 21 37 0 57 15 57 42 0 14 -8 17 -45 16 -36 -2 -45 -6
-47 -23 -2 -16 -12 -21 -44 -23 -34 -2 -42 0 -46 16 -5 17 1 21 33 26 40 6 47
14 28 33 -7 7 0 12 25 17 46 9 55 25 25 49 l-24 20 30 -8 c17 -4 55 -6 85 -5
73 4 90 4 120 1 71 -8 107 -1 120 24 7 14 21 25 29 25 20 0 45 -37 31 -45 -16
-10 -12 -23 10 -30 31 -10 44 4 24 26 -18 20 -12 24 29 20 12 -2 17 5 17 24
l0 27 -82 -6 c-94 -7 -136 -7 -228 0 -60 5 -197 10 -380 14 -76 2 -130 -11
-130 -30 0 -5 5 -10 12 -10 9 0 9 -3 0 -12 -9 -9 -94 -35 -182 -55 -14 -3 -34
-12 -45 -19 -18 -13 -18 -14 10 -14 39 0 75 -10 75 -20 0 -16 -105 -40 -144
-33 -32 5 -38 3 -43 -15 -4 -17 -10 -20 -40 -15 -27 5 -38 2 -45 -10 -5 -10
-17 -17 -26 -17 -16 1 -16 1 1 11 22 13 22 35 0 48 -16 8 -11 17 39 66 55 53
61 56 126 64 38 5 81 16 94 25 14 9 32 14 40 11 8 -3 28 -1 43 5 23 9 26 13
15 20 -8 5 -22 8 -30 6 -8 -3 -25 -7 -38 -11 -21 -6 -23 -4 -20 17 3 21 9 24
68 28 39 3 85 15 115 30 53 26 109 29 245 14 77 -8 57 -8 205 4 66 5 132 15
147 20 16 7 38 8 56 3 16 -5 36 -5 45 0 9 6 26 5 42 -1 14 -5 68 -10 119 -10
52 0 111 -6 132 -13 30 -11 67 -12 154 -6 63 4 163 8 222 8 59 1 119 6 135 12
28 12 79 23 121 27 19 2 22 -3 22 -38z m780 -99 c0 -17 -42 -61 -58 -61 -6 0
-35 52 -29 55 1 0 18 8 37 17 39 17 50 15 50 -11z m224 23 c28 -11 18 -34 -14
-34 -28 0 -30 -2 -30 -39 0 -34 -3 -38 -20 -34 -11 3 -30 15 -42 28 -13 12
-32 27 -43 33 -17 9 -13 12 32 18 29 3 61 13 70 20 21 15 26 16 47 8z m50 -59
c8 -21 -15 -55 -36 -55 -12 0 -18 8 -18 23 0 40 41 64 54 32z m-2601 -6 c-19
-6 -40 -5 -55 0 -18 8 -12 10 32 9 50 0 52 -1 23 -9z m2980 -36 c-7 -2 -19 -2
-25 0 -7 3 -2 5 12 5 14 0 19 -2 13 -5z m-6704 -39 c2 -2 2 -7 -2 -10 -9 -9
-87 7 -87 18 0 9 78 2 89 -8z m3699 -12 c2 -8 -9 -12 -30 -12 -19 0 -39 -5
-45 -11 -16 -16 -58 8 -44 25 14 16 113 14 119 -2z m-688 -10 c0 -14 -11 -21
-26 -15 -21 8 -17 23 6 23 11 0 20 -4 20 -8z m58 -45 c2 -12 -3 -17 -17 -17
-15 0 -21 6 -21 21 0 25 33 22 38 -4z m620 -23 c-9 -19 -8 -28 4 -41 27 -30
41 -99 26 -123 -11 -17 -11 -22 1 -29 10 -7 11 -16 3 -42 -12 -35 -11 -87 2
-126 7 -21 4 -22 -36 -21 -45 1 -127 -17 -141 -31 -5 -5 2 -16 14 -25 22 -15
22 -16 4 -16 -11 0 -31 -13 -45 -30 -14 -16 -28 -30 -32 -30 -16 0 -8 63 9 75
14 10 15 16 5 28 -7 8 -10 21 -7 29 9 23 -17 37 -66 37 -24 -1 -57 2 -74 5
-54 11 -136 -47 -107 -76 12 -12 47 0 83 29 22 18 63 0 78 -34 13 -29 14 -28
-21 -39 -35 -11 -22 -38 19 -39 40 0 43 -30 4 -43 -20 -7 -37 -25 -51 -51 -11
-23 -25 -41 -31 -41 -6 0 -24 -10 -41 -21 -28 -20 -29 -25 -23 -65 l6 -44 -31
0 c-25 0 -31 -3 -26 -16 5 -14 2 -15 -21 -8 -34 9 -58 9 -103 1 -30 -6 -38 -4
-53 18 -24 33 -9 55 37 55 17 0 38 4 46 10 11 7 8 11 -15 20 -29 11 -55 10
-102 -5 -20 -6 -21 -4 -21 42 0 28 7 55 16 65 13 16 13 18 -2 24 -21 8 -102
-14 -117 -32 -6 -8 -8 -14 -3 -14 4 0 -7 -12 -24 -26 -18 -15 -32 -36 -32 -48
1 -19 2 -19 11 -3 5 9 16 17 23 17 7 0 23 9 36 20 46 40 65 18 33 -39 -14 -25
-25 -31 -50 -31 -21 0 -33 -5 -33 -13 0 -14 -60 -47 -85 -47 -9 0 -12 6 -9 15
4 8 15 15 25 15 15 0 17 4 10 23 -12 33 -35 32 -74 -3 -44 -38 -71 -34 -122
18 -26 28 -38 33 -46 25 -15 -15 2 -39 32 -48 28 -9 23 -32 -11 -50 -25 -13
-29 -19 -23 -45 3 -17 2 -30 -3 -30 -5 0 -19 -3 -31 -6 -28 -8 -32 16 -7 40
14 15 13 16 -15 16 -40 0 -40 18 -1 31 35 13 38 24 10 39 -11 6 -20 17 -20 25
0 8 9 24 20 35 25 25 25 27 0 40 -25 14 -46 4 -30 -15 20 -24 -30 -45 -92 -38
-61 6 -79 -6 -83 -58 -1 -18 -10 -36 -19 -41 -9 -5 -23 -22 -31 -38 -16 -32
-20 -64 -6 -56 14 9 42 -29 35 -48 -10 -27 -53 -15 -58 16 -1 9 -8 23 -15 31
-9 11 -10 28 -4 59 7 37 12 43 33 43 18 0 26 6 28 23 3 19 -1 22 -28 22 -38 0
-32 15 11 24 39 8 33 30 -9 34 -18 2 -32 7 -32 13 0 5 -15 9 -32 8 -18 0 -54
5 -79 11 -62 17 -99 7 -99 -25 0 -22 -3 -24 -32 -19 -18 3 -39 7 -45 10 -14 4
-83 -33 -95 -51 -14 -19 -8 -34 19 -47 15 -7 29 -21 31 -31 3 -14 -3 -17 -38
-14 -33 3 -44 -1 -56 -17 -25 -36 -18 -49 24 -44 20 3 48 2 62 -2 23 -5 22 -7
-19 -23 -36 -15 -41 -20 -31 -32 7 -8 21 -15 32 -15 10 0 21 -6 24 -14 7 -18
-81 -112 -91 -97 -3 6 1 11 10 11 12 0 14 4 5 19 -7 13 -7 22 0 26 18 11 11
32 -16 44 -20 9 -30 9 -40 0 -8 -6 -39 -11 -70 -10 -31 0 -67 -5 -84 -14 -25
-13 -29 -13 -41 1 -8 10 -24 14 -41 12 -24 -4 -27 -2 -22 18 3 12 -3 42 -14
66 l-19 44 34 49 c20 31 33 62 33 82 0 22 6 36 20 43 14 8 19 17 15 33 -4 16
1 29 14 41 12 11 21 25 21 32 0 13 37 26 113 40 42 7 43 10 20 43 -15 23 -15
25 3 38 19 14 19 14 -1 29 -15 11 -17 18 -9 32 25 39 79 19 68 -24 -3 -13 -2
-24 2 -24 16 0 49 65 49 95 0 21 4 29 14 27 8 -2 17 2 22 9 4 6 28 15 53 19
35 5 52 3 72 -11 l27 -17 -47 -7 c-26 -4 -60 -5 -76 -1 -17 3 -30 1 -30 -3 0
-5 -3 -16 -6 -25 -4 -10 5 -20 25 -31 28 -14 33 -14 56 1 16 10 34 14 54 9 25
-5 41 1 86 30 64 43 71 51 56 69 -18 22 12 39 51 30 18 -4 46 -8 61 -9 16 -1
32 -6 35 -12 4 -5 28 -13 54 -16 38 -5 51 -3 65 11 25 25 118 45 144 31 22
-11 106 -2 115 13 3 5 -2 15 -12 23 -16 11 -9 13 50 14 72 1 100 13 93 41 -8
32 11 49 48 43 30 -5 36 -2 44 18 6 17 5 29 -5 40 -21 23 -17 29 17 29 60 0
91 -37 49 -60 -12 -6 -20 -21 -20 -35 0 -31 35 -41 93 -27 23 6 56 14 72 17
17 3 48 10 70 15 37 8 56 12 123 26 14 3 22 12 22 25 0 15 5 19 18 15 10 -4
41 -7 69 -7 38 -1 59 5 94 26 57 37 122 39 146 6 11 -16 18 -20 26 -12 8 8 8
14 -1 23 -18 18 -15 26 11 30 38 6 47 -1 35 -28z m1021 4 c6 -16 4 -28 -7 -40
-32 -38 -73 -8 -57 42 9 29 53 27 64 -2z m795 6 c6 -17 -19 -54 -36 -54 -12 0
-10 44 4 58 16 16 25 15 32 -4z m-920 -40 c4 -9 4 -19 1 -22 -3 -3 -5 0 -5 6
0 7 -7 12 -15 12 -8 0 -15 5 -15 10 0 16 27 11 34 -6z m-754 -26 c0 -16 -3
-19 -11 -11 -6 6 -8 16 -5 22 11 17 16 13 16 -11z m975 -75 c14 -15 25 -30 25
-33 -1 -16 -19 -29 -44 -32 -19 -2 -30 -9 -32 -21 -4 -27 -13 -32 -20 -12 -4
9 -2 20 4 24 7 4 13 20 13 37 4 71 15 79 54 37z m-3133 -45 c12 -18 27 -22 89
-27 71 -6 73 -7 49 -21 -85 -49 -132 -66 -173 -60 -39 5 -42 7 -41 36 2 34 -9
37 -59 16 -35 -15 -76 1 -55 21 7 7 24 13 38 14 14 1 32 11 40 22 22 29 92 29
112 -1z m3677 -4 c24 -12 30 -19 22 -27 -8 -8 -14 -8 -23 1 -7 7 -20 12 -30
12 -18 0 -24 11 -11 23 8 9 5 10 42 -9z m-2769 -18 c0 -2 -9 -6 -20 -9 -11 -3
-20 -1 -20 4 0 5 9 9 20 9 11 0 20 -2 20 -4z m-656 -37 c-8 -14 -50 -10 -63 5
-10 12 -7 15 16 18 30 4 56 -9 47 -23z m126 21 c0 -5 -5 -20 -11 -33 -11 -23
-12 -24 -30 -9 -32 28 -22 46 29 51 6 0 12 -3 12 -9z m-595 -29 c3 -5 1 -13
-5 -16 -15 -9 -43 3 -35 15 8 13 32 13 40 1z m3462 -43 c-3 -7 -5 -2 -5 12 0
14 2 19 5 13 2 -7 2 -19 0 -25z m-807 12 c0 -13 -32 -28 -47 -23 -26 9 -13 33
17 33 17 0 30 -4 30 -10z m178 -14 c5 -22 -22 -46 -50 -46 -21 0 -25 39 -6 58
18 18 52 10 56 -12z m555 13 c47 -13 50 -39 4 -39 -34 0 -57 15 -57 37 0 16 4
16 53 2z m-474 -20 c23 -8 35 -8 45 0 15 13 27 5 19 -15 -3 -8 -13 -14 -24
-14 -10 0 -22 -7 -27 -17 -6 -10 -16 -14 -26 -10 -10 4 -15 11 -12 15 3 5 -4
19 -15 30 -23 25 -11 29 40 11z m384 -42 c-7 -11 -23 12 -23 33 1 12 4 11 15
-4 8 -10 12 -23 8 -29z m-3323 13 c0 -5 -7 -10 -15 -10 -8 0 -15 5 -15 10 0 6
7 10 15 10 8 0 15 -4 15 -10z m2475 -9 c3 -5 1 -12 -5 -16 -5 -3 -10 1 -10 9
0 18 6 21 15 7z m1042 -68 c-3 -10 -5 -4 -5 12 0 17 2 24 5 18 2 -7 2 -21 0
-30z m-672 -11 c-5 -14 -7 -14 -15 -2 -5 9 -4 20 3 28 14 17 22 0 12 -26z
m-4557 -3 c-18 -12 -75 -12 -62 0 12 12 45 19 62 13 11 -4 11 -6 0 -13z m4037
-49 c8 -15 12 -30 9 -33 -8 -8 -54 42 -54 58 0 22 29 6 45 -25z m500 11 c7
-12 -12 -24 -25 -16 -11 7 -4 25 10 25 5 0 11 -4 15 -9z m135 -41 c0 -11 -4
-20 -9 -20 -14 0 -23 18 -16 30 10 17 25 11 25 -10z m-440 -10 c9 -16 8 -20
-5 -20 -8 0 -15 9 -15 20 0 11 2 20 5 20 2 0 9 -9 15 -20z m660 -34 c0 -11
-19 -15 -25 -6 -3 5 1 10 9 10 9 0 16 -2 16 -4z m-692 -23 c-2 -9 -8 -18 -15
-20 -7 -3 -9 3 -6 16 6 25 26 28 21 4z m1483 -16 c-10 -9 -11 -8 -5 6 3 10 9
15 12 12 3 -3 0 -11 -7 -18z m-1151 -7 c0 -11 -4 -20 -10 -20 -5 0 -10 9 -10
20 0 11 5 20 10 20 6 0 10 -9 10 -20z m-4560 -14 c0 -19 -16 -36 -32 -36 -25
0 -53 26 -35 33 15 7 67 9 67 3z m-310 -30 c0 -28 -25 -41 -48 -25 -16 10 -15
10 1 5 12 -4 17 0 17 13 0 16 7 24 28 30 1 1 2 -10 2 -23z m842 -9 c32 -32 36
-33 98 -30 96 5 131 5 137 -1 9 -8 -18 -36 -33 -36 -11 0 -13 -7 -8 -27 9 -36
9 -36 25 -21 28 27 94 41 132 29 34 -11 35 -13 24 -41 -6 -17 -15 -30 -19 -30
-4 0 -8 -8 -8 -19 0 -14 -6 -17 -25 -13 -14 2 -24 10 -22 16 2 6 0 19 -5 29
-9 18 -11 18 -33 -3 -12 -11 -33 -21 -46 -22 -13 0 -48 -5 -77 -10 -44 -8 -57
-7 -71 6 -10 9 -30 16 -44 16 -31 0 -35 15 -11 41 21 24 9 40 -24 34 -15 -3
-62 -8 -104 -11 -68 -5 -79 -3 -94 14 -13 16 -22 18 -41 11 -14 -5 -35 -6 -49
-3 -17 4 -26 1 -30 -10 -3 -9 -12 -16 -20 -16 -19 0 -35 -33 -23 -51 16 -25
10 -29 -42 -27 -58 3 -72 13 -29 22 18 3 30 12 30 21 0 14 -13 20 -35 15 -61
-13 -115 -15 -131 -3 -22 16 -22 16 58 42 36 12 78 33 92 46 33 31 85 40 139
26 28 -8 53 -9 74 -2 18 5 40 7 50 5 10 -2 32 5 48 16 44 29 77 26 117 -13z
m3681 -8 c-4 -13 -9 -17 -16 -10 -12 12 -1 45 12 37 5 -3 7 -15 4 -27z m-3398
-9 c-3 -5 -12 -10 -18 -10 -7 0 -6 4 3 10 19 12 23 12 15 0z m811 -31 c10 -17
-13 -36 -27 -22 -12 12 -4 33 11 33 5 0 12 -5 16 -11z m104 -20 c0 -6 -5 -19
-11 -30 -8 -16 -7 -25 6 -39 24 -27 13 -47 -34 -61 -28 -8 -41 -18 -41 -30 0
-26 -17 -33 -51 -19 -23 10 -32 10 -45 -1 -39 -32 -156 -10 -170 33 -3 10 -25
30 -50 44 -55 32 -91 27 -107 -16 -6 -16 -23 -34 -39 -41 -42 -17 -56 -38 -35
-54 20 -14 12 -25 -19 -25 -21 0 -23 3 -13 26 11 31 9 35 -22 35 -13 0 -34 -1
-46 -1 -32 0 -73 -18 -73 -30 0 -6 15 -17 33 -25 17 -8 26 -14 18 -15 -8 0
-22 -6 -30 -14 -22 -20 -71 -31 -71 -17 0 6 7 11 15 11 9 0 15 9 15 21 0 18
-5 21 -34 17 -46 -5 -36 9 16 23 27 7 37 13 29 18 -14 9 7 21 38 21 10 0 28
11 41 25 l24 26 17 -22 c11 -15 22 -19 37 -14 27 8 28 19 1 46 -20 20 -20 22
-3 40 11 12 30 19 56 19 34 0 38 3 38 25 0 18 5 25 20 25 11 0 20 -6 20 -13 0
-7 9 -18 20 -25 12 -7 20 -8 20 -2 0 5 9 10 20 10 11 0 20 -6 20 -14 0 -8 15
-17 35 -20 25 -5 35 -12 35 -26 0 -45 160 -33 211 16 20 19 32 24 53 18 30 -7
34 3 9 21 -15 11 -15 15 -4 29 15 18 51 22 51 5z m7170 -9 c0 -5 -6 -10 -14
-10 -8 0 -18 5 -21 10 -3 6 3 10 14 10 12 0 21 -4 21 -10z m-6636 -27 c9 -22
4 -24 -32 -17 -34 7 -43 30 -14 36 24 6 39 -1 46 -19z m1434 -17 c3 -12 -1
-17 -10 -14 -7 3 -15 13 -16 22 -3 12 1 17 10 14 7 -3 15 -13 16 -22z m5602
16 c0 -13 -12 -22 -22 -16 -10 6 -1 24 13 24 5 0 9 -4 9 -8z m378 -3 c-2 -6
-8 -10 -13 -10 -5 0 -11 4 -13 10 -2 6 4 11 13 11 9 0 15 -5 13 -11z m-8624
-60 c-1 -3 -30 -6 -63 -7 -49 -1 -60 1 -63 16 -3 12 6 20 32 27 29 9 40 7 66
-10 18 -11 30 -23 28 -26z m2229 15 c10 -3 17 -15 17 -31 0 -21 -4 -24 -21
-20 -12 3 -33 1 -48 -5 -32 -12 -111 -12 -124 1 -12 12 27 51 53 51 11 0 20 5
20 11 0 10 54 6 103 -7z m544 -6 c-3 -8 -6 -5 -6 6 -1 11 2 17 5 13 3 -3 4
-12 1 -19z m-1384 -13 c0 -6 -7 -11 -16 -13 -12 -3 -15 1 -11 13 7 17 25 17
27 0z m501 -29 c-7 -17 -29 -24 -61 -18 -46 9 -20 27 44 31 16 1 21 -3 17 -13z
m879 -11 c4 -8 2 -17 -3 -20 -6 -4 -10 3 -10 14 0 25 6 27 13 6z m-717 -6 c3
-6 -6 -23 -20 -38 -14 -15 -26 -34 -26 -42 0 -22 -64 -53 -94 -45 -19 5 -26
13 -26 32 0 21 -4 24 -20 19 -21 -7 -37 15 -26 33 9 15 54 1 59 -18 3 -10 19
-26 36 -34 l31 -17 0 32 c0 22 -5 32 -20 36 -29 8 -25 33 4 33 14 0 28 5 31
10 8 13 62 13 71 -1z m-368 -46 c-15 -18 -55 -16 -62 3 -4 9 -2 22 4 29 9 11
17 10 40 -3 21 -12 26 -20 18 -29z m6588 -8 c0 -25 -4 -35 -16 -35 -12 0 -15
8 -12 35 2 19 10 35 16 35 7 0 12 -15 12 -35z m-6946 -5 c0 -6 -11 -16 -25
-22 -25 -11 -29 -18 -26 -49 1 -9 -7 -19 -18 -22 -18 -4 -19 -2 -10 14 5 10 6
19 1 19 -19 0 -4 43 19 56 29 16 59 18 59 4z m90 -24 c-14 -14 -24 0 -16 21 6
15 8 15 16 3 6 -9 5 -19 0 -24z m-1606 8 c21 -8 2 -34 -25 -34 -22 0 -24 11
-7 28 14 14 12 14 32 6z m634 -15 c2 -5 11 -9 21 -9 16 0 71 -48 71 -63 0 -14
-31 -6 -52 13 -11 10 -36 26 -54 35 -39 18 -48 51 -11 39 12 -3 24 -11 25 -15z
m1660 4 c-4 -20 -48 -29 -48 -10 0 19 10 27 32 27 13 0 18 -6 16 -17z m-1411
-61 c-7 -9 -17 -25 -20 -34 -4 -10 -11 -18 -17 -18 -12 0 -13 10 0 30 6 10 4
20 -6 32 -25 27 -8 41 27 22 28 -14 29 -17 16 -32z m1155 4 c-16 -17 -16 -19
6 -33 23 -16 29 -47 12 -58 -15 -10 -39 13 -56 53 -17 43 -18 38 7 61 17 15
24 17 34 8 11 -10 10 -16 -3 -31z m-296 -48 c4 -26 12 -53 20 -58 19 -17 -2
-70 -28 -70 -18 0 -19 4 -14 38 9 46 9 76 1 127 -5 29 -4 36 4 25 6 -8 14 -36
17 -62z m149 52 c7 -12 -40 -80 -55 -80 -15 0 -6 70 10 80 20 13 37 12 45 0z
m-1289 -27 c-10 -10 -19 5 -10 18 6 11 8 11 12 0 2 -7 1 -15 -2 -18z m1654 13
c0 -3 -4 -8 -10 -11 -5 -3 -10 -1 -10 4 0 6 5 11 10 11 6 0 10 -2 10 -4z
m-1709 -24 c28 -23 20 -52 -15 -52 -17 0 -26 7 -30 25 -12 46 7 57 45 27z
m579 7 c13 -9 12 -10 -3 -5 -10 3 -26 -3 -38 -15 -12 -12 -27 -18 -36 -15 -14
6 -14 9 2 26 20 22 52 26 75 9z m1549 -94 c1 -53 -10 -82 -27 -71 -10 6 -8 48
5 126 5 30 7 32 13 15 5 -11 9 -42 9 -70z m-2219 54 c0 -5 -9 -9 -20 -9 -22 0
-27 16 -7 23 15 5 27 -1 27 -14z m833 -17 c-23 -6 -42 17 -23 28 9 6 18 3 26
-8 10 -14 10 -18 -3 -20z m-2161 16 c7 -20 -5 -53 -21 -56 -9 -2 -11 3 -7 13
3 9 6 25 6 36 0 21 15 26 22 7z m4208 -66 c0 -42 -21 -11 -27 39 l-5 44 16
-29 c9 -15 16 -40 16 -54z m-4397 51 c-4 -10 -11 -21 -17 -25 -15 -10 -68 -10
-85 1 -19 12 2 24 59 32 25 3 46 7 47 8 1 0 -1 -7 -4 -16z m9887 7 c0 -5 -9
-10 -19 -10 -35 0 -51 -12 -51 -36 0 -23 -10 -31 -22 -18 -3 3 -3 17 1 32 5
19 16 29 37 33 45 10 54 10 54 -1z m-6491 -18 c7 -14 1 -26 -30 -59 -34 -37
-42 -41 -64 -33 -20 8 -25 16 -25 46 0 45 21 63 72 64 26 0 40 -6 47 -18z
m471 3 c0 -8 -4 -15 -10 -15 -5 0 -10 7 -10 15 0 8 5 15 10 15 6 0 10 -7 10
-15z m-2930 -5 c0 -5 -4 -10 -10 -10 -5 0 -10 5 -10 10 0 6 5 10 10 10 6 0 10
-4 10 -10z m-547 -7 c14 -13 -17 -33 -51 -33 -34 0 -35 0 -17 20 18 19 55 27
68 13z m277 -33 c0 -43 -23 -57 -35 -20 -9 27 3 60 21 60 10 0 14 -12 14 -40z
m2810 20 c12 -1 11 -4 -4 -15 -14 -11 -22 -11 -37 -2 -26 16 -24 31 4 23 12
-3 29 -6 37 -6z m-2955 -46 c0 -26 -29 -24 -33 3 -2 16 1 21 15 19 10 -2 18
-11 18 -22z m365 6 c19 -12 13 -16 -32 -24 -40 -7 -59 7 -31 23 22 13 44 13
63 1z m2660 1 c0 -6 -4 -13 -10 -16 -5 -3 -10 1 -10 9 0 9 5 16 10 16 6 0 10
-4 10 -9z m5646 -6 c-11 -8 -25 -15 -30 -15 -6 1 0 7 14 15 32 19 40 18 16 0z
m-6036 -45 c0 -21 3 -46 7 -56 13 -34 -17 -3 -32 33 -17 41 -12 75 11 66 9 -3
14 -19 14 -43z m834 35 c-4 -8 -8 -15 -10 -15 -2 0 -4 7 -4 15 0 8 4 15 10 15
5 0 7 -7 4 -15z m-1254 -10 c0 -9 -9 -15 -25 -15 -16 0 -25 6 -25 15 0 9 9 15
25 15 16 0 25 -6 25 -15z m162 -65 c-16 -27 -15 -49 3 -56 19 -8 9 -24 -15
-24 -27 0 -35 18 -35 75 0 58 12 72 40 45 16 -17 18 -23 7 -40z m125 38 c-2
-8 -17 -12 -36 -10 -26 3 -34 -1 -38 -17 -5 -21 -23 -29 -23 -11 0 29 26 50
63 50 27 0 37 -4 34 -12z m6813 -3 c0 -8 5 -24 12 -35 13 -20 4 -40 -11 -24
-15 15 -24 74 -12 74 6 0 11 -7 11 -15z m-7145 -15 c3 -6 -4 -14 -17 -19 -28
-10 -30 -9 -22 13 7 18 29 21 39 6z m7049 -6 c10 -27 7 -34 -18 -34 -30 0 -42
16 -26 35 16 20 36 19 44 -1z m-9444 -3 c0 -5 -12 -11 -27 -14 -26 -5 -26 -4
-8 9 22 16 35 18 35 5z m2480 -5 c0 -8 -5 -18 -11 -22 -14 -8 -33 11 -25 25
10 16 36 13 36 -3z m-172 -31 c-12 -27 -38 -34 -38 -10 0 12 20 27 47 34 2 1
-3 -10 -9 -24z m-578 -1 c0 -2 -9 -4 -21 -4 -11 0 -18 4 -14 10 5 8 35 3 35
-6z m1288 -3 c3 -8 -1 -12 -9 -9 -7 2 -15 10 -17 17 -3 8 1 12 9 9 7 -2 15
-10 17 -17z m5912 -1 c0 -5 -2 -10 -4 -10 -3 0 -8 5 -11 10 -3 6 -1 10 4 10 6
0 11 -4 11 -10z m-5827 -25 c-6 -18 -34 -16 -41 3 -2 7 6 12 22 12 19 0 24 -4
19 -15z m6199 -95 c111 -109 111 -110 93 -130 -19 -21 -19 -21 -132 92 -106
105 -111 113 -96 130 9 10 18 18 19 18 2 0 54 -49 116 -110z m228 90 c0 -5 -5
-10 -11 -10 -5 0 -7 5 -4 10 3 6 8 10 11 10 2 0 4 -4 4 -10z m-7333 -19 c27
-23 43 -91 20 -91 -8 0 -20 14 -26 32 -6 17 -14 28 -18 25 -7 -8 -32 23 -33
41 0 18 32 14 57 -7z m7238 -1 c3 -5 1 -10 -4 -10 -6 0 -11 5 -11 10 0 6 2 10
4 10 3 0 8 -4 11 -10z m-6910 -20 c-3 -5 -11 -10 -16 -10 -6 0 -7 5 -4 10 3 6
11 10 16 10 6 0 7 -4 4 -10z m7190 0 c-3 -5 -10 -10 -16 -10 -5 0 -9 5 -9 10
0 6 7 10 16 10 8 0 12 -4 9 -10z m-670 -29 c-3 -6 -11 -11 -17 -11 -6 0 -6 6
2 15 14 17 26 13 15 -4z m-7122 -21 c-7 -27 -22 -35 -29 -16 -7 18 13 49 26
41 5 -3 6 -14 3 -25z m7301 -79 c99 -99 108 -111 95 -127 -8 -10 -106 -109
-219 -221 l-205 -203 -113 113 -113 113 213 217 c117 119 218 216 223 217 6 0
59 -49 119 -109z m-8320 81 c-1 -7 -2 -23 -2 -37 -2 -19 -7 -25 -26 -25 -15 0
-34 -12 -49 -30 -14 -16 -30 -30 -36 -30 -25 0 -8 34 42 84 49 51 73 64 71 38z
m8606 8 c0 -5 -2 -10 -4 -10 -3 0 -8 5 -11 10 -3 6 -1 10 4 10 6 0 11 -4 11
-10z m-6765 -10 c-3 -5 -21 -10 -38 -9 -31 1 -31 1 -7 9 36 11 52 11 45 0z
m-600 -10 c3 -5 1 -10 -4 -10 -6 0 -11 5 -11 10 0 6 2 10 4 10 3 0 8 -4 11
-10z m105 -29 c0 -3 -7 -15 -15 -25 -14 -19 -15 -19 -15 5 0 16 6 26 15 26 8
0 15 -3 15 -6z m-461 -25 c14 -13 28 -16 55 -11 35 7 36 7 36 -26 0 -19 8 -42
20 -54 19 -20 19 -21 1 -32 -16 -10 -20 -9 -25 12 -3 13 -15 27 -26 30 -11 3
-25 15 -30 26 -6 10 -21 19 -34 19 -14 0 -30 10 -40 24 -11 17 -22 23 -36 19
-11 -3 -20 -9 -20 -14 0 -12 -67 -11 -75 1 -14 23 9 31 81 27 51 -3 80 -10 93
-21z m261 -6 c0 -5 -2 -10 -4 -10 -3 0 -8 5 -11 10 -3 6 -1 10 4 10 6 0 11 -4
11 -10z m411 -44 c-21 -9 -51 -2 -51 12 0 5 10 14 23 19 17 9 25 8 35 -5 11
-14 10 -18 -7 -26z m6236 15 c7 -19 19 -31 34 -33 l24 -4 -27 -13 c-14 -8 -29
-24 -32 -37 -8 -31 -22 -31 -30 1 -4 15 -16 27 -31 31 -33 8 -32 20 5 33 20 7
30 17 30 30 0 30 14 26 27 -8z m-6588 10 c18 -12 6 -42 -14 -35 -8 3 -15 15
-15 25 0 21 8 23 29 10z m-131 -21 c7 -11 23 -20 37 -20 16 0 25 -6 25 -16 0
-16 -5 -16 -71 -2 -25 5 -35 58 -11 58 4 0 13 -9 20 -20z m6662 10 c0 -12 -28
-25 -36 -17 -9 9 6 27 22 27 8 0 14 -5 14 -10z m-7016 -60 c-11 -11 -94 -3
-94 10 0 3 17 11 38 16 28 8 41 7 52 -3 10 -9 11 -16 4 -23z m-174 21 c0 -5
-7 -11 -15 -15 -15 -5 -20 5 -8 17 9 10 23 9 23 -2z m7350 -17 c0 -8 -5 -12
-10 -9 -6 4 -8 11 -5 16 9 14 15 11 15 -7z m-6490 -19 c0 -21 -28 -31 -43 -16
-9 9 -8 14 3 21 22 14 40 12 40 -5z m-920 -5 c-8 -5 -19 -10 -25 -10 -5 0 -3
5 5 10 8 5 20 10 25 10 6 0 3 -5 -5 -10z m-287 -82 c7 -4 22 -8 35 -8 13 0 22
-6 22 -15 0 -20 -39 -19 -61 1 -15 14 -25 14 -74 3 -48 -11 -58 -10 -65 2 -12
19 -5 24 60 47 55 19 55 19 63 -2 4 -11 13 -24 20 -28z m347 22 c0 -5 -5 -10
-11 -10 -5 0 -7 5 -4 10 3 6 8 10 11 10 2 0 4 -4 4 -10z m405 -29 c-26 -25
-69 -38 -63 -20 5 16 45 39 68 39 11 0 10 -5 -5 -19z m-190 -1 c3 -6 -1 -7 -9
-4 -18 7 -21 14 -7 14 6 0 13 -4 16 -10z m245 -44 c0 -3 -4 -8 -10 -11 -5 -3
-10 -1 -10 4 0 6 5 11 10 11 6 0 10 -2 10 -4z m-550 -16 c0 -5 -2 -10 -4 -10
-3 0 -8 5 -11 10 -3 6 -1 10 4 10 6 0 11 -4 11 -10z m6675 -19 c3 -5 1 -12 -5
-16 -5 -3 -10 1 -10 9 0 18 6 21 15 7z m73 -25 c-4 -29 -22 -23 -26 9 -3 19 0
24 13 19 9 -4 15 -15 13 -28z m1232 -61 c8 -25 20 -37 46 -47 19 -6 34 -15 34
-18 0 -4 -18 -14 -39 -22 -30 -12 -40 -22 -46 -47 -9 -40 -21 -39 -35 4 -8 25
-20 37 -46 47 -43 15 -43 24 1 38 28 9 37 19 46 50 14 45 23 44 39 -5z m-6025
-5 c3 -5 1 -10 -4 -10 -6 0 -11 5 -11 10 0 6 2 10 4 10 3 0 8 -4 11 -10z
m4815 -24 c-13 -13 -35 7 -25 24 5 8 11 8 21 -1 10 -8 12 -15 4 -23z m-6600 9
c0 -8 -4 -15 -9 -15 -5 0 -16 -3 -25 -6 -12 -4 -16 0 -16 15 0 16 6 21 25 21
16 0 25 -6 25 -15z m7215 -105 c108 -109 109 -109 90 -130 l-19 -21 -113 113
c-106 105 -111 113 -96 130 9 10 19 18 22 18 4 0 56 -49 116 -110z m-575 25
c0 -8 5 -15 10 -15 19 0 10 -17 -15 -28 -33 -15 -35 -15 -35 3 0 9 7 18 16 22
8 3 13 12 10 19 -3 8 -1 14 4 14 6 0 10 -7 10 -15z m350 -85 c0 -19 -11 -26
-23 -14 -8 8 3 34 14 34 5 0 9 -9 9 -20z m-292 -2 c-5 -16 -48 -24 -48 -10 0
11 17 20 38 21 8 1 12 -5 10 -11z m-300 -136 c-2 -22 2 -37 10 -40 17 -5 15
-42 -3 -42 -9 0 -15 9 -15 25 0 35 -1 39 -18 51 -12 8 -12 15 -3 33 17 30 33
16 29 -27z m-408 0 c0 -15 -2 -15 -10 -2 -13 20 -13 33 0 25 6 -3 10 -14 10
-23z m910 18 c0 -5 -4 -10 -10 -10 -5 0 -10 5 -10 10 0 6 5 10 10 10 6 0 10
-4 10 -10z m-890 -60 c0 -5 -2 -10 -4 -10 -3 0 -8 5 -11 10 -3 6 -1 10 4 10 6
0 11 -4 11 -10z m-6466 -215 c3 -10 -1 -15 -14 -15 -20 0 -33 13 -23 24 11 11
31 6 37 -9z m617 -18 c-16 -16 -26 0 -10 19 9 11 15 12 17 4 2 -6 -1 -17 -7
-23z m-568 6 c-7 -2 -19 -2 -25 0 -7 3 -2 5 12 5 14 0 19 -2 13 -5z m1202 -32
c-3 -6 -11 -11 -17 -11 -6 0 -6 6 2 15 14 17 26 13 15 -4z m-665 -61 c0 -5 -5
-10 -11 -10 -5 0 -7 5 -4 10 3 6 8 10 11 10 2 0 4 -4 4 -10z"/>
<path d="M4628 3050 c-18 -21 -13 -26 11 -11 7 5 12 14 10 20 -3 7 -11 3 -21
-9z"/>
<path d="M5205 2790 c3 -5 10 -10 16 -10 5 0 9 5 9 10 0 6 -7 10 -16 10 -8 0
-12 -4 -9 -10z"/>
<path d="M4757 2783 c-14 -13 -6 -24 15 -21 27 4 36 28 11 28 -11 0 -23 -3
-26 -7z"/>
<path d="M5517 2776 c-7 -19 0 -25 24 -19 10 3 19 12 19 19 0 18 -36 18 -43 0z"/>
<path d="M5350 2730 c-11 -7 -7 -10 18 -10 17 0 32 5 32 10 0 13 -30 13 -50 0z"/>
<path d="M5830 2720 c19 -13 30 -13 30 0 0 6 -10 10 -22 10 -19 0 -20 -2 -8
-10z"/>
<path d="M5540 2670 c0 -5 5 -10 10 -10 6 0 10 -7 10 -16 0 -14 2 -14 16 -3
14 12 14 14 -2 26 -21 16 -34 17 -34 3z"/>
<path d="M5200 2640 c-18 -11 18 -22 37 -11 13 7 12 9 -5 13 -11 3 -25 2 -32
-2z"/>
<path d="M4830 2584 c0 -5 9 -20 19 -34 18 -22 21 -23 45 -11 19 11 23 18 16
27 -6 6 -20 10 -30 7 -11 -3 -27 0 -35 7 -8 7 -15 9 -15 4z"/>
<path d="M4636 2435 c5 -11 16 -15 38 -13 43 4 39 22 -6 26 -31 3 -37 0 -32
-13z"/>
<path d="M4970 2430 c0 -11 5 -20 10 -20 6 0 10 9 10 20 0 11 -4 20 -10 20 -5
0 -10 -9 -10 -20z"/>
<path d="M5050 2417 c0 -8 7 -18 16 -21 11 -4 14 -1 12 11 -4 21 -28 30 -28
10z"/>
<path d="M4278 2468 c-49 -28 -48 -37 5 -31 51 7 52 8 41 33 -9 19 -9 19 -46
-2z"/>
<path d="M4065 2409 c-10 -15 1 -23 20 -15 9 3 13 10 10 16 -8 13 -22 13 -30
-1z"/>
<path d="M3510 2390 c0 -5 4 -10 9 -10 6 0 13 5 16 10 3 6 -1 10 -9 10 -9 0
-16 -4 -16 -10z"/>
<path d="M4200 2390 c0 -5 9 -10 20 -10 11 0 20 5 20 10 0 6 -9 10 -20 10 -11
0 -20 -4 -20 -10z"/>
<path d="M2880 2226 c0 -14 29 -26 67 -26 16 0 20 5 16 20 -4 16 -14 20 -44
20 -27 0 -39 -4 -39 -14z"/>
<path d="M3343 2204 c-24 -27 -53 -32 -53 -8 0 8 -5 12 -11 9 -6 -4 -8 -10 -5
-13 4 -3 -6 -18 -21 -34 -25 -26 -26 -30 -11 -45 15 -14 22 -15 70 -1 41 11
57 22 71 46 18 30 18 32 0 51 -18 19 -18 19 -40 -5z"/>
<path d="M3018 2203 c7 -3 16 -2 19 1 4 3 -2 6 -13 5 -11 0 -14 -3 -6 -6z"/>
<path d="M3733 2173 c-8 -6 -8 -13 2 -27 11 -15 19 -16 42 -9 37 13 36 37 -2
41 -16 1 -35 -1 -42 -5z"/>
<path d="M3140 2155 c-9 -10 -22 -14 -39 -10 -30 6 -77 -2 -216 -40 -55 -15
-114 -27 -132 -26 -18 0 -45 -6 -60 -14 -15 -8 -47 -15 -70 -15 -24 0 -43 -1
-43 -3 0 -1 -4 -17 -9 -35 -13 -43 8 -66 45 -52 14 6 52 10 84 10 54 0 60 3
80 30 18 25 28 30 62 30 22 0 58 -5 79 -11 32 -10 50 -8 118 11 48 14 81 29
81 37 0 7 -5 13 -11 13 -25 0 1 25 31 30 39 6 63 35 40 50 -20 13 -26 12 -40
-5z"/>
<path d="M2585 2110 c3 -5 8 -10 11 -10 2 0 4 5 4 10 0 6 -5 10 -11 10 -5 0
-7 -4 -4 -10z"/>
<path d="M3740 2060 c-8 -5 -32 -10 -52 -10 -20 0 -49 -5 -65 -11 l-28 -11 40
-19 c37 -16 41 -16 57 -2 17 15 32 12 34 -8 1 -5 2 -13 3 -18 0 -5 11 -11 22
-14 24 -7 65 16 80 45 9 17 7 19 -27 16 -32 -3 -39 0 -43 19 -5 17 -10 20 -21
13z"/>
<path d="M3909 2027 c-7 -12 -20 -30 -31 -40 -20 -20 -20 -38 0 -45 16 -5 72
55 72 77 0 29 -28 34 -41 8z"/>
<path d="M2460 2030 c0 -13 30 -13 50 0 11 7 7 10 -17 10 -18 0 -33 -4 -33
-10z"/>
<path d="M3550 2030 c0 -5 7 -7 15 -4 8 4 15 8 15 10 0 2 -7 4 -15 4 -8 0 -15
-4 -15 -10z"/>
<path d="M3724 1952 c-22 -15 -24 -41 -2 -47 26 -9 42 7 33 34 -7 22 -13 25
-31 13z"/>
<path d="M2280 1926 c0 -8 -2 -20 -5 -28 -2 -7 2 -21 9 -31 12 -16 17 -17 35
-5 16 9 21 21 19 43 -2 24 -8 31 -30 33 -20 2 -28 -1 -28 -12z"/>
<path d="M3796 1911 c-3 -5 1 -11 9 -15 9 -3 15 0 15 9 0 16 -16 20 -24 6z"/>
<path d="M3866 1824 c-6 -17 9 -44 25 -44 14 0 10 36 -5 49 -11 9 -15 8 -20
-5z"/>
<path d="M2436 1775 c-3 -8 -17 -20 -31 -27 -14 -6 -25 -17 -25 -25 0 -7 -6
-13 -12 -13 -7 0 -26 -7 -42 -15 -16 -9 -35 -14 -43 -11 -7 3 -18 -3 -26 -14
-7 -10 -25 -22 -39 -25 -60 -15 -36 -60 38 -71 54 -8 62 -2 44 31 -19 35 -1
53 35 37 37 -17 45 -15 45 12 0 24 41 76 60 76 17 0 40 26 40 44 0 20 -36 21
-44 1z"/>
<path d="M986 1785 c4 -8 10 -12 15 -9 14 8 10 24 -6 24 -9 0 -12 -6 -9 -15z"/>
<path d="M9538 1007 c-165 -94 -303 -301 -241 -362 57 -58 282 101 361 254 34
67 40 109 20 129 -22 22 -81 13 -140 -21z"/>
<path d="M7638 3949 c-37 -21 -14 -129 27 -129 50 0 72 73 36 118 -21 24 -37
27 -63 11z"/>
<path d="M10185 3910 c-4 -7 -2 -16 6 -21 18 -11 23 -4 11 17 -7 12 -11 13
-17 4z"/>
<path d="M7010 3876 c-19 -6 -46 -17 -59 -25 -22 -12 -26 -12 -43 8 -23 29
-47 24 -70 -15 -20 -35 -25 -68 -14 -102 6 -18 4 -24 -11 -28 -11 -3 -25 -20
-31 -37 -9 -24 -15 -28 -21 -18 -5 7 -6 21 -4 31 8 29 -37 108 -66 118 l-26 9
28 13 c15 7 27 19 27 26 0 18 -58 28 -75 14 -17 -14 -20 -40 -5 -40 17 0 11
-17 -16 -49 -14 -17 -30 -47 -35 -66 -12 -43 -21 -44 -36 -4 -11 29 -14 30
-60 27 -60 -4 -67 -24 -24 -69 35 -37 34 -34 20 -61 -24 -44 49 -55 118 -18
20 11 39 17 43 15 3 -2 4 9 2 26 -3 17 0 29 7 29 6 0 11 -9 11 -20 0 -17 5
-19 25 -14 19 5 25 2 25 -10 0 -9 -8 -16 -20 -16 -11 0 -20 -6 -20 -14 0 -19
34 -30 57 -18 10 5 44 13 76 17 73 8 140 38 161 70 21 31 36 31 70 0 14 -13
32 -22 39 -19 8 3 33 1 56 -5 42 -9 44 -9 54 20 15 38 30 37 50 -6 14 -30 22
-35 49 -35 18 0 71 -1 118 -3 89 -3 110 3 110 35 0 10 7 32 15 48 l15 29 -53
6 c-30 4 -64 2 -80 -4 -48 -18 -99 -13 -139 14 -20 14 -44 25 -54 25 -14 0
-15 8 -9 55 6 54 6 55 -22 66 -22 8 -34 7 -54 -5 -24 -14 -30 -14 -55 -1 -16
8 -31 14 -34 14 -3 -1 -21 -6 -40 -13z m-70 -211 c0 -8 -9 -15 -20 -15 -11 0
-20 7 -20 15 0 8 9 15 20 15 11 0 20 -7 20 -15z"/>
<path d="M9110 3869 c-29 -12 -40 -27 -40 -54 0 -37 14 -47 46 -34 16 6 36 12
44 14 34 7 70 25 70 35 0 5 7 10 15 10 8 0 15 7 15 15 0 10 -10 15 -27 15 -16
0 -44 2 -63 5 -19 3 -46 0 -60 -6z"/>
<path d="M8990 3855 c0 -8 4 -15 10 -15 5 0 7 7 4 15 -4 8 -8 15 -10 15 -2 0
-4 -7 -4 -15z"/>
<path d="M784 3739 c-9 -15 12 -33 30 -26 9 4 16 13 16 22 0 17 -35 21 -46 4z"/>
<path d="M7670 3688 c0 -9 5 -20 10 -23 13 -8 13 5 0 25 -8 13 -10 13 -10 -2z"/>
<path d="M1630 3662 c0 -24 8 -32 26 -25 22 8 17 43 -6 43 -13 0 -20 -7 -20
-18z"/>
<path d="M8712 3669 c-21 -8 -23 -13 -17 -52 5 -34 3 -48 -10 -60 -9 -10 -13
-17 -8 -17 4 0 17 -3 28 -6 17 -4 28 5 53 44 38 59 39 66 10 86 -25 18 -25 18
-56 5z"/>
<path d="M4766 3554 c-18 -18 -21 -34 -6 -34 6 0 10 7 10 15 0 8 9 15 21 15
11 0 17 5 14 10 -9 14 -21 12 -39 -6z"/>
<path d="M1730 3514 c0 -17 22 -14 28 4 2 7 -3 12 -12 12 -9 0 -16 -7 -16 -16z"/>
<path d="M7170 3491 c0 -18 30 -32 62 -29 26 2 35 -2 43 -19 9 -22 45 -33 45
-14 0 5 9 13 20 16 27 9 25 34 -2 39 -52 11 -168 15 -168 7z"/>
<path d="M6895 3400 c-19 -8 -19 -9 3 -9 12 -1 22 4 22 9 0 6 -1 10 -2 9 -2 0
-12 -4 -23 -9z"/>
<path d="M3140 2928 c-14 -5 -45 -13 -69 -16 -24 -4 -46 -12 -48 -19 -3 -8 16
-10 69 -7 141 8 187 23 133 44 -32 12 -52 12 -85 -2z"/>
<path d="M3550 2910 c-8 -5 -12 -11 -10 -13 9 -8 80 5 80 14 0 12 -51 11 -70
-1z"/>
<path d="M2825 2871 c-9 -16 8 -18 45 -5 l35 13 -37 0 c-20 1 -39 -3 -43 -8z"/>
<path d="M3895 2833 c-72 -16 -98 -47 -50 -59 48 -12 135 15 135 42 0 21 -36
28 -85 17z"/>
<path d="M3734 2822 c-6 -4 -13 -15 -17 -24 -5 -14 -2 -16 16 -9 12 5 23 16
25 25 4 17 -6 20 -24 8z"/>
<path d="M3322 2800 c-36 -8 -49 -17 -39 -26 12 -12 77 6 77 21 0 8 -1 15 -2
14 -2 -1 -18 -5 -36 -9z"/>
<path d="M3015 2749 c-4 -6 -5 -12 -2 -15 7 -7 37 7 37 17 0 13 -27 11 -35 -2z"/>
<path d="M3340 2710 c0 -13 11 -13 30 0 12 8 11 10 -7 10 -13 0 -23 -4 -23
-10z"/>
<path d="M1330 2665 c-20 -15 -42 -23 -54 -20 -19 5 -57 -10 -46 -17 3 -2 42
-2 87 0 70 3 83 6 88 23 14 44 -24 52 -75 14z"/>
<path d="M3038 2663 c-10 -3 -18 -8 -18 -13 0 -13 26 -19 41 -9 18 11 1 27
-23 22z"/>
<path d="M1597 2600 c-3 -13 0 -20 9 -20 15 0 19 26 5 34 -5 3 -11 -3 -14 -14z"/>
<path d="M2420 2591 c0 -6 5 -13 10 -16 14 -9 52 4 45 16 -8 12 -55 12 -55 0z"/>
<path d="M1405 2580 c-3 -5 1 -10 9 -10 9 0 19 0 23 -1 4 0 9 4 11 10 5 14
-35 14 -43 1z"/>
<path d="M1483 2579 c14 -8 22 -8 30 0 8 8 3 11 -18 11 -26 -1 -28 -2 -12 -11z"/>
<path d="M3150 2555 c-11 -13 -7 -15 23 -15 28 0 35 3 31 15 -4 8 -14 15 -24
15 -10 0 -23 -7 -30 -15z"/>
<path d="M1163 2524 c-27 -12 -11 -25 25 -22 20 2 36 8 35 13 -3 11 -41 17
-60 9z"/>
<path d="M1000 2500 c0 -5 -7 -10 -17 -10 -9 0 -14 -3 -10 -6 9 -9 57 5 57 16
0 6 -7 10 -15 10 -8 0 -15 -4 -15 -10z"/>
<path d="M1048 2493 c6 -2 18 -2 25 0 6 3 1 5 -13 5 -14 0 -19 -2 -12 -5z"/>
<path d="M475 2430 c-4 -6 5 -10 19 -10 14 0 26 5 26 10 0 6 -9 10 -19 10 -11
0 -23 -4 -26 -10z"/>
<path d="M1705 2410 c-7 -12 2 -30 16 -30 12 0 12 27 0 35 -5 3 -12 1 -16 -5z"/>
<path d="M0 2375 c0 -9 6 -12 15 -9 19 8 19 24 0 24 -8 0 -15 -7 -15 -15z"/>
<path d="M545 2350 c-4 -6 7 -10 24 -10 17 0 31 5 31 10 0 6 -11 10 -24 10
-14 0 -28 -4 -31 -10z"/>
<path d="M317 2320 c-9 -11 -17 -25 -17 -30 0 -12 44 -24 62 -17 7 3 1 6 -14
6 -16 1 -28 6 -28 12 0 7 10 9 25 7 37 -7 51 16 19 30 -31 15 -26 16 -47 -8z"/>
<path d="M1320 2060 c-13 -9 -13 -10 0 -10 8 0 22 5 30 10 13 9 13 10 0 10 -8
0 -22 -5 -30 -10z"/>
<path d="M1590 2039 c0 -5 5 -7 10 -4 6 3 10 8 10 11 0 2 -4 4 -10 4 -5 0 -10
-5 -10 -11z"/>
<path d="M1663 1913 c-34 -6 -28 -18 15 -29 50 -13 71 -8 65 17 -5 19 -27 22
-80 12z"/>
<path d="M0 1595 c0 -17 2 -18 24 -9 23 9 20 24 -4 24 -11 0 -20 -7 -20 -15z"/>
</g>
</svg>
