<svg width="32" height="33" viewBox="0 0 32 33" fill="none" xmlns="http://www.w3.org/2000/svg">
<g id="Group 5">
<path id="Oval 3" fill-rule="evenodd" clip-rule="evenodd" d="M16.2052 32.1891C24.8899 32.1891 31.9302 25.1487 31.9302 16.464C31.9302 7.7793 24.8899 0.738953 16.2052 0.738953C7.52045 0.738953 0.480103 7.7793 0.480103 16.464C0.480103 25.1487 7.52045 32.1891 16.2052 32.1891Z" fill="black" fill-opacity="0.11314"/>
<path id="Rectangle 107 Copy 10" fill-rule="evenodd" clip-rule="evenodd" d="M19.4478 11.9599C18.3253 13.0824 16.0061 16.6915 16.1405 16.8814C17.5657 18.8962 19.3413 21.2117 19.3413 21.2117C19.9391 19.7623 17.4977 23.6283 16.2873 22.6317L11.8846 19.0067C10.4335 17.8119 10.4287 15.5913 11.8747 14.3902L16.355 10.6686C17.8979 9.38697 20.8662 10.5415 19.4478 11.9599Z" fill="#F7F0ED"/>
</g>
</svg>
