<svg version="1.1" id="Layer_1" xmlns="http://www.w3.org/2000/svg" xmlns:xlink="http://www.w3.org/1999/xlink" x="0px" y="0px"
	 width="100%" viewBox="0 0 225 225" enable-background="new 0 0 225 225" xml:space="preserve">
<path fill="#E69682" opacity="1.000000" stroke="none" 
	d="
M1.000000,51.000000 
	C1.000000,34.355793 1.000000,17.711582 1.000000,1.033687 
	C75.876465,1.033687 150.752960,1.033687 226.000000,1.033687 
	C226.000000,17.352362 226.000000,33.707523 225.531342,50.531342 
	C150.375122,51.000000 75.687561,51.000000 1.000000,51.000000 
z"/>
<path fill="#DC8D98" opacity="1.000000" stroke="none" 
	d="
M1.000000,194.000000 
	C1.000000,176.979111 1.000000,159.958206 1.468657,142.468658 
	C14.284233,142.000641 26.631151,142.001266 38.982185,142.411331 
	C37.223289,151.001419 36.140533,159.190201 38.793327,167.402466 
	C41.916443,177.070679 52.789490,179.929214 60.259441,173.014786 
	C61.593151,171.780243 62.730183,170.331268 63.940845,168.966064 
	C72.529472,159.281235 86.994179,160.018005 94.332077,170.476227 
	C95.277504,171.823700 96.370598,173.129608 97.619019,174.191818 
	C103.417686,179.125580 110.889763,177.149887 113.655182,170.114639 
	C115.651665,165.035553 117.815285,160.022141 120.306969,155.060516 
	C124.647659,155.699081 128.587524,156.745163 132.523529,156.730804 
	C151.121445,156.663040 169.717758,156.248718 188.315704,156.070541 
	C200.876205,155.950211 213.438507,156.016953 226.000000,156.000000 
	C226.000000,168.687561 226.000000,181.375122 225.531342,194.531342 
	C203.420746,195.193939 181.780746,194.915894 160.134171,195.547394 
	C145.347321,195.978760 130.526535,195.114044 115.719772,195.028946 
	C96.243118,194.916977 76.765259,194.976532 57.288067,195.023148 
	C53.501987,195.032196 49.714481,195.491241 45.931282,195.444916 
	C36.853260,195.333771 27.775883,195.094376 18.701214,194.811539 
	C12.798113,194.627548 6.900224,194.276306 1.000000,194.000000 
z"/>
<path fill="#D98B9D" opacity="1.000000" stroke="none" 
	d="
M1.000000,194.468658 
	C6.900224,194.276306 12.798113,194.627548 18.701214,194.811539 
	C27.775883,195.094376 36.853260,195.333771 45.931282,195.444916 
	C49.714481,195.491241 53.501987,195.032196 57.288067,195.023148 
	C76.765259,194.976532 96.243118,194.916977 115.719772,195.028946 
	C130.526535,195.114044 145.347321,195.978760 160.134171,195.547394 
	C181.780746,194.915894 203.420746,195.193939 225.531342,195.000000 
	C226.000000,205.317612 226.000000,215.635239 226.000000,225.948975 
	C150.999985,225.945084 75.999977,225.945084 1.000000,225.945084 
	C1.000000,215.572556 1.000000,205.254929 1.000000,194.468658 
z"/>
<path fill="#E39389" opacity="1.000000" stroke="none" 
	d="
M1.000000,51.468636 
	C75.687561,51.000000 150.375122,51.000000 225.531342,51.000000 
	C226.000000,67.354225 226.000000,83.708458 225.531342,100.531342 
	C214.085587,101.000008 203.108505,101.000015 192.212250,100.643814 
	C193.528534,93.147453 195.806686,86.003761 195.782639,78.867844 
	C195.732330,63.948410 182.801620,53.247219 168.932007,55.653015 
	C157.265091,57.676731 148.710526,63.121918 146.754425,75.929085 
	C142.807388,75.236870 139.247314,74.078064 135.692764,74.094788 
	C121.298904,74.162491 106.907341,74.777275 92.513733,74.824364 
	C82.455345,74.857269 72.395424,74.280403 62.335144,74.015823 
	C60.678631,73.972260 59.017281,74.163521 57.357178,74.196983 
	C49.447227,74.356438 41.537376,74.531197 33.626656,74.639503 
	C22.751497,74.788422 11.875587,74.882454 1.000000,75.000000 
	C1.000000,67.312424 1.000000,59.624847 1.000000,51.468636 
z"/>
<path fill="#E39389" opacity="1.000000" stroke="none" 
	d="
M1.000000,75.468636 
	C11.875587,74.882454 22.751497,74.788422 33.626656,74.639503 
	C41.537376,74.531197 49.447227,74.356438 57.357178,74.196983 
	C59.017281,74.163521 60.678631,73.972260 62.335144,74.015823 
	C72.395424,74.280403 82.455345,74.857269 92.513733,74.824364 
	C106.907341,74.777275 121.298904,74.162491 135.692764,74.094788 
	C139.247314,74.078064 142.807388,75.236870 146.817886,76.331009 
	C147.593491,82.760887 148.956284,88.320175 153.204605,92.831161 
	C156.638000,96.476845 158.256744,96.472260 161.733902,92.751335 
	C165.027771,89.226547 165.450455,85.365425 164.062317,80.746666 
	C162.651337,76.051857 165.458740,72.236938 170.296127,71.157082 
	C174.784988,70.155029 177.451950,72.193390 178.547852,77.463875 
	C180.156509,85.200287 176.772034,94.906151 170.356308,98.587006 
	C160.519318,104.230743 150.167236,106.282364 139.481094,100.577866 
	C134.635117,97.990974 129.779663,95.413223 125.030319,92.655937 
	C117.276115,88.154167 109.581665,87.965233 101.869576,92.628014 
	C96.890038,95.638687 91.953468,98.720444 86.932800,101.394531 
	C84.854691,100.345909 82.844254,99.097298 80.827736,99.087387 
	C54.218990,98.956551 27.609388,99.000092 1.000000,99.000000 
	C1.000000,91.312424 1.000000,83.624847 1.000000,75.468636 
z"/>
<path fill="#DF9092" opacity="1.000000" stroke="none" 
	d="
M192.131409,101.000015 
	C203.108505,101.000015 214.085587,101.000008 225.531342,101.000000 
	C226.000000,119.020897 226.000000,137.041794 226.000000,155.531342 
	C213.438507,156.016953 200.876205,155.950211 188.315704,156.070541 
	C169.717758,156.248718 151.121445,156.663040 132.523529,156.730804 
	C128.587524,156.745163 124.647659,155.699081 120.335869,154.696655 
	C122.096657,147.614319 126.403259,142.525391 132.394897,139.383148 
	C139.403656,135.707474 146.663040,132.287781 154.162704,129.815887 
	C170.226517,124.521233 183.224823,115.549339 192.131409,101.000015 
z"/>
<path fill="#E0918F" opacity="1.000000" stroke="none" 
	d="
M1.000000,99.468658 
	C27.609388,99.000092 54.218990,98.956551 80.827736,99.087387 
	C82.844254,99.097298 84.854691,100.345909 86.676163,101.631531 
	C81.393669,104.955353 76.568787,108.503052 71.162476,110.220718 
	C54.866936,115.398018 44.271801,125.904305 38.978069,142.001892 
	C26.631151,142.001266 14.284233,142.000641 1.468657,142.000000 
	C1.000000,127.979103 1.000000,113.958214 1.000000,99.468658 
z"/>
<path fill="#FFFEFE" opacity="1.000000" stroke="none" 
	d="
M38.982185,142.411331 
	C44.271801,125.904305 54.866936,115.398018 71.162476,110.220718 
	C76.568787,108.503052 81.393669,104.955353 86.741005,102.007339 
	C91.953468,98.720444 96.890038,95.638687 101.869576,92.628014 
	C109.581665,87.965233 117.276115,88.154167 125.030319,92.655937 
	C129.779663,95.413223 134.635117,97.990974 139.481094,100.577866 
	C150.167236,106.282364 160.519318,104.230743 170.356308,98.587006 
	C176.772034,94.906151 180.156509,85.200287 178.547852,77.463875 
	C177.451950,72.193390 174.784988,70.155029 170.296127,71.157082 
	C165.458740,72.236938 162.651337,76.051857 164.062317,80.746666 
	C165.450455,85.365425 165.027771,89.226547 161.733902,92.751335 
	C158.256744,96.472260 156.638000,96.476845 153.204605,92.831161 
	C148.956284,88.320175 147.593491,82.760887 147.207397,76.404800 
	C148.710526,63.121918 157.265091,57.676731 168.932007,55.653015 
	C182.801620,53.247219 195.732330,63.948410 195.782639,78.867844 
	C195.806686,86.003761 193.528534,93.147453 192.212250,100.643814 
	C183.224823,115.549339 170.226517,124.521233 154.162704,129.815887 
	C146.663040,132.287781 139.403656,135.707474 132.394897,139.383148 
	C126.403259,142.525391 122.096657,147.614319 119.933266,154.615601 
	C117.815285,160.022141 115.651665,165.035553 113.655182,170.114639 
	C110.889763,177.149887 103.417686,179.125580 97.619019,174.191818 
	C96.370598,173.129608 95.277504,171.823700 94.332077,170.476227 
	C86.994179,160.018005 72.529472,159.281235 63.940845,168.966064 
	C62.730183,170.331268 61.593151,171.780243 60.259441,173.014786 
	C52.789490,179.929214 41.916443,177.070679 38.793327,167.402466 
	C36.140533,159.190201 37.223289,151.001419 38.982185,142.411331 
M123.855934,111.425529 
	C122.526733,109.773666 121.476364,107.595978 119.755196,106.683327 
	C118.842461,106.199348 115.568428,107.761703 115.455269,108.663254 
	C115.196762,110.722672 115.518326,113.832603 116.879128,114.919121 
	C119.949074,117.370277 122.308205,115.325317 123.855934,111.425529 
z"/>
<path fill="#E29592" opacity="1.000000" stroke="none" 
	d="
M123.786530,111.794189 
	C122.308205,115.325317 119.949074,117.370277 116.879128,114.919121 
	C115.518326,113.832603 115.196762,110.722672 115.455269,108.663254 
	C115.568428,107.761703 118.842461,106.199348 119.755196,106.683327 
	C121.476364,107.595978 122.526733,109.773666 123.786530,111.794189 
z"/>
</svg>