<?xml version="1.0" standalone="no"?>
<!DOCTYPE svg PUBLIC "-//W3C//DTD SVG 20010904//EN"
 "http://www.w3.org/TR/2001/REC-SVG-20010904/DTD/svg10.dtd">
<svg version="1.0" xmlns="http://www.w3.org/2000/svg"
 width="1024.000000pt" height="1024.000000pt" viewBox="0 0 1024.000000 1024.000000"
 preserveAspectRatio="xMidYMid meet">

<g transform="translate(0.000000,1024.000000) scale(0.100000,-0.100000)"
fill="#000000" stroke="none">
<path d="M8798 10233 c12 -2 32 -2 45 0 12 2 2 4 -23 4 -25 0 -35 -2 -22 -4z"/>
<path d="M9021 10230 c86 -4 166 -11 178 -15 29 -9 442 -9 574 0 235 17 102
24 -388 23 -372 -1 -476 -3 -364 -8z"/>
<path d="M9965 10230 c75 -12 275 -12 275 0 0 6 -60 10 -162 9 -118 -1 -149
-4 -113 -9z"/>
<path d="M490 5312 c-14 -9 -27 -19 -30 -23 -3 -3 -23 -16 -45 -28 -37 -19
-37 -20 -10 -15 56 11 63 15 90 49 30 40 29 40 -5 17z"/>
<path d="M4865 5231 c-11 -9 -108 -62 -280 -151 -60 -31 -130 -68 -155 -82
-25 -14 -103 -55 -175 -93 -135 -70 -233 -134 -274 -179 -26 -27 -19 -36 9
-11 9 8 45 16 88 20 65 4 107 16 122 34 10 12 80 32 90 26 5 -3 10 -2 10 4 0
5 14 12 30 16 17 4 30 11 30 17 0 6 3 9 6 5 3 -3 19 10 36 29 17 19 35 34 40
34 6 0 18 8 27 18 24 27 115 87 189 123 23 12 42 25 42 30 0 5 14 9 30 9 21 0
30 5 30 17 0 9 3 14 6 10 10 -10 63 44 88 90 25 44 27 49 11 34z"/>
<path d="M347 5223 c-10 -9 -9 -23 1 -23 5 0 9 7 9 15 0 17 -1 18 -10 8z"/>
<path d="M300 5195 c-10 -12 -10 -15 4 -15 9 0 16 7 16 15 0 8 -2 15 -4 15 -2
0 -9 -7 -16 -15z"/>
<path d="M260 5170 c0 -5 5 -10 10 -10 6 0 10 5 10 10 0 6 -4 10 -10 10 -5 0
-10 -4 -10 -10z"/>
<path d="M66 5111 c-3 -5 -19 -11 -36 -14 -27 -6 -30 -11 -30 -42 0 -19 5 -35
10 -35 6 0 10 5 10 10 0 6 20 10 44 10 25 0 48 5 51 10 12 19 14 70 3 70 -6 0
-8 -11 -6 -25 4 -19 1 -25 -13 -25 -19 0 -26 16 -10 22 5 2 3 9 -4 15 -8 7
-16 9 -19 4z"/>
<path d="M0 5000 c0 -5 5 -10 10 -10 6 0 10 5 10 10 0 6 -4 10 -10 10 -5 0
-10 -4 -10 -10z"/>
<path d="M1336 4618 c-20 -28 -20 -39 -2 -32 10 4 30 -17 60 -63 49 -73 55
-93 31 -113 -19 -16 -176 2 -223 26 -28 14 -34 13 -59 -1 -74 -41 -253 -161
-433 -290 -190 -136 -377 -265 -384 -265 -4 0 -78 -48 -166 -107 l-160 -106 0
-1834 0 -1833 5120 0 5120 0 0 1973 -1 1972 -187 138 c-257 189 -286 209 -372
262 -41 25 -111 73 -155 105 -44 33 -83 60 -88 60 -33 0 -715 -482 -806 -569
-24 -23 -61 -51 -83 -62 -103 -53 -244 -162 -232 -180 3 -5 2 -8 -3 -7 -4 2
-19 -5 -33 -15 -21 -15 -23 -19 -10 -27 8 -5 23 -10 33 -10 9 0 17 -4 17 -10
0 -5 18 -10 40 -10 22 0 40 -4 40 -10 0 -6 27 -10 60 -10 53 0 60 -2 60 -20 0
-13 7 -20 20 -20 17 0 20 -7 20 -40 0 -33 -3 -40 -20 -40 -13 0 -20 -7 -20
-20 0 -13 -7 -20 -20 -20 -17 0 -20 -7 -20 -40 l0 -40 -40 0 c-33 0 -40 -3
-40 -20 0 -13 -7 -20 -20 -20 -13 0 -20 -7 -20 -20 0 -13 -7 -20 -20 -20 -16
0 -20 -7 -20 -35 0 -28 4 -35 20 -35 15 0 20 -7 20 -25 0 -18 5 -25 20 -25 11
0 20 -6 20 -14 0 -11 17 -13 83 -10 211 9 557 11 557 3 0 -5 -26 -10 -57 -10
-32 -1 -50 -3 -40 -6 9 -2 17 -13 17 -24 0 -16 7 -19 40 -19 33 0 40 -3 40
-20 0 -13 7 -20 20 -20 19 0 20 -7 20 -94 l0 -94 -40 -7 c-30 -5 -40 -11 -40
-26 0 -12 -7 -19 -20 -19 -13 0 -20 -7 -20 -19 0 -11 -6 -22 -12 -24 -10 -4
-9 -8 2 -16 10 -7 11 -11 3 -11 -15 0 -73 -55 -73 -69 0 -6 -21 -21 -47 -33
-43 -21 -48 -27 -51 -61 l-3 -38 -18 23 -18 22 -12 -22 c-6 -12 -9 -23 -6 -23
3 -1 10 -3 15 -4 6 -1 14 -3 19 -4 5 0 11 -8 14 -15 6 -16 -16 -12 -40 7 -7 5
-13 7 -13 4 0 -8 -878 433 -917 460 -16 11 -57 32 -93 47 -98 43 -413 209
-509 270 -70 45 -64 46 -318 -74 -248 -118 -504 -229 -833 -361 -335 -134
-522 -212 -607 -250 -66 -30 -45 -41 -229 127 -54 49 -111 101 -127 116 -15
14 -58 53 -95 85 -36 32 -76 68 -88 79 -12 12 -67 61 -121 109 -54 49 -132
120 -173 159 -105 99 -238 218 -350 312 -81 67 -474 368 -617 471 -25 18 -120
91 -211 161 -269 208 -289 222 -309 222 -10 0 -158 -104 -328 -231 -171 -127
-355 -263 -410 -302 -55 -39 -116 -85 -137 -103 -75 -66 -62 -71 -221 92 -78
81 -234 240 -346 353 -115 117 -231 244 -267 294 -62 86 -63 87 -78 65z m7024
-968 c0 -5 -4 -10 -10 -10 -5 0 -10 5 -10 10 0 6 5 10 10 10 6 0 10 -4 10 -10z
m-4441 -382 c26 -18 64 -55 82 -82 43 -63 307 -305 334 -306 64 -1 113 -31
225 -134 40 -37 149 -80 205 -81 58 -1 113 -23 120 -46 6 -19 61 -45 85 -41 9
1 27 -9 40 -23 13 -14 34 -25 47 -25 13 0 22 -4 18 -9 -3 -6 2 -14 12 -20 14
-7 -5 -20 -101 -65 -65 -31 -119 -56 -121 -56 -7 0 -151 -72 -275 -137 -63
-33 -187 -98 -275 -143 -88 -46 -203 -108 -255 -138 -52 -30 -120 -68 -150
-84 -30 -15 -62 -33 -71 -40 -33 -23 -237 156 -423 370 -89 103 -275 333 -366
452 -62 82 -100 129 -255 325 -60 77 -113 147 -117 156 -6 15 6 18 110 24 64
4 158 11 207 16 50 5 155 16 235 24 187 19 299 33 363 47 29 6 102 18 162 28
61 10 111 18 113 19 1 1 24 -13 51 -31z m4968 -824 c-2 -2 -18 2 -36 9 -17 7
-29 16 -26 19 4 3 20 -1 36 -9 17 -8 28 -17 26 -19z m-1879 -1106 c-17 -15
-34 -28 -39 -28 -4 0 -6 -6 -3 -13 3 -8 -2 -20 -11 -27 -19 -16 -45 -74 -45
-102 0 -11 -43 -64 -100 -123 -55 -58 -100 -109 -100 -115 0 -5 -7 -10 -15
-10 -8 0 -15 -4 -15 -8 0 -4 -18 -28 -40 -52 -22 -25 -47 -57 -56 -72 -8 -16
-19 -28 -24 -28 -5 0 -12 -9 -15 -20 -3 -11 -11 -20 -17 -20 -6 0 -16 -7 -23
-16 -12 -17 -37 -10 -67 19 -7 7 -47 36 -88 63 -69 46 -156 108 -187 134 -7 6
-15 10 -18 10 -4 0 -59 39 -123 87 -64 48 -149 109 -188 136 -40 26 -77 54
-84 62 -11 13 -8 15 18 15 17 0 42 4 55 9 13 5 123 17 243 25 236 17 329 26
584 57 169 20 205 25 275 39 22 4 56 7 77 7 l36 -1 -30 -28z m2774 -198 c109
-109 110 -111 92 -131 -18 -20 -19 -19 -131 93 -106 105 -111 113 -96 130 9
10 18 18 20 18 2 0 54 -50 115 -110z m-77 -80 l110 -110 -220 -220 -220 -220
-112 112 -113 113 217 217 c120 120 220 218 223 218 3 0 55 -50 115 -110z
m-527 -25 c6 -14 18 -25 27 -25 23 0 18 -16 -10 -28 -14 -6 -25 -18 -25 -27 0
-23 -16 -18 -28 10 -6 14 -18 25 -27 25 -23 0 -18 16 10 28 14 6 25 18 25 27
0 23 16 18 28 -10z m642 -330 c8 -25 20 -37 46 -47 43 -15 43 -24 -1 -38 -25
-8 -37 -20 -47 -46 -15 -43 -24 -43 -38 1 -8 25 -20 37 -46 47 -43 15 -43 24
1 38 25 8 37 20 47 46 15 43 24 43 38 -1z m-595 -125 c108 -109 109 -109 90
-130 l-19 -21 -113 113 c-106 105 -111 113 -96 130 9 10 19 18 22 18 4 0 56
-49 116 -110z"/>
<path d="M9537 1008 c-73 -39 -200 -172 -233 -241 -60 -130 -1 -171 136 -94
145 81 292 301 238 355 -21 21 -81 13 -141 -20z"/>
</g>
</svg>
